<?xml version="1.0" encoding="UTF-8" standalone="no"?>
<!-- Created with Inkscape (http://www.inkscape.org/) -->

<svg
   xmlns:dc="http://purl.org/dc/elements/1.1/"
   xmlns:cc="http://creativecommons.org/ns#"
   xmlns:rdf="http://www.w3.org/1999/02/22-rdf-syntax-ns#"
   xmlns:svg="http://www.w3.org/2000/svg"
   xmlns="http://www.w3.org/2000/svg"
   version="1.1"
   width="892.91339"
   height="345.82675"
   id="svg12318"
   xml:space="preserve"><metadata
     id="metadata12324"><rdf:RDF><cc:Work
         rdf:about=""><dc:format>image/svg+xml</dc:format><dc:type
           rdf:resource="http://purl.org/dc/dcmitype/StillImage" /><dc:title></dc:title></cc:Work></rdf:RDF></metadata><defs
     id="defs12322" /><g
     transform="matrix(1.25,0,0,-1.25,40.106966,930.6959)"
     id="g12326"><g
       transform="matrix(4.3505606,0,0,4.3505606,-429.59386,-2148.69)"
       id="g21214"><g
         id="g21206"><g
           transform="translate(195.807,640.247)"
           id="g16282"><path
             d="M 0,0 C 18.72,3.549 26.019,9.387 27.489,10.53 L 31.004,4.64 C 31.004,4.64 19.007,-1.064 0,0"
             id="path16284"
             style="fill:#dd2a1b;fill-opacity:1;fill-rule:nonzero;stroke:none" /></g><g
           transform="translate(216.662,621.619)"
           id="g16286"><path
             d="m 0,0 c -6.869,-7.267 -17.53,-18.361 -25.182,-18.361 -10,0 0.029,18.415 0.029,18.415 -4.304,-5.612 -13.2,-18.415 -20.403,-18.415 -6.479,0 -4.386,4.911 -2.444,11.394 l 3.382,11.31 c 2.687,8.982 0.473,5.647 -2.228,2.729 -3.6,-3.986 -13.135,-13.997 -19.602,-21.005 -3.639,-3.901 -4.675,-4.939 -6.878,-4.939 -3.588,0 -2.429,3.082 -0.965,7.982 1.148,3.836 3.994,13.302 4.17,13.893 1.496,5.002 2.04,7.315 -0.994,4.062 L -94.13,-17.618 c -2.077,-2.228 -4.489,-1.877 -4.489,-1.877 -3.397,-0.013 -2.22,4.324 -1.947,5.195 l 5.676,18.974 c 0.15,0.507 1.913,5.295 -3.398,1.944 -5.992,-3.78 -19.009,-7.964 -23.369,-8.721 0,0 -2.952,-0.583 -2.982,1.746 -0.033,2.569 1.579,2.806 1.579,2.806 17.45,4.029 33.749,12.517 33.749,12.517 0,0 4.356,2.229 6.003,2.229 2.344,-0.005 1.556,-2.633 0.508,-6.139 l -2.702,-9.032 c -0.442,-1.475 -0.823,-2.183 3.624,1.731 l 14.944,13.151 c 1.978,1.74 11.897,9.784 8.918,-0.177 L -62.329,2.308 c 0,0 -1.513,-4.032 4.744,1.473 l 15.784,13.891 c 2.885,2.539 11.098,7.669 10.63,1.562 -0.115,-1.289 -0.645,-2.753 -1.656,-6.127 l -4.92,-16.45 c -2.298,-7.686 8.398,2.688 21.385,20.533 3.94,0.089 7.514,0.215 9.791,0.699 -4.411,-7.372 -12.436,-18.405 -11.983,-21.595 0.911,-6.369 10.175,1.194 26.865,15.176 0,0 11.487,10.65 17.847,10.65 3.892,0 8.363,-0.805 6.197,-9.126 0,0 -0.913,-4.421 -5.521,-4.421 -1.775,0 -3.087,2.4 -1.448,5.112 2.687,4.455 0.292,4.455 0.292,4.455 -7.638,0 -18.981,-12.708 -18.036,-20.714 1.056,-8.937 18.533,-5.385 28.078,5.959 0,0 1.277,1.648 2.186,-0.054 C 38.703,1.835 37.86,0.851 37.86,0.851 35.545,-1.889 9.966,-25.502 0.39,-16.908 -3.631,-13.303 -3.021,-4.927 0,0 m -12.775,22.12 8.124,11.159 c 0,0 1.091,1.502 4.692,1.502 2.887,0 4.256,0.463 0.631,-5.316 -0.757,-1.202 -0.884,-1.447 -2.086,-3.344 -3.578,-1.78 -6.705,-2.604 -11.361,-4.001"
             id="path16288"
             style="fill:#0091d7;fill-opacity:1;fill-rule:nonzero;stroke:none" /></g><g
           transform="translate(191.601,660.843)"
           id="g16290"><path
             d="m 0,0 c -0.019,-0.174 -0.093,-0.476 -0.222,-0.902 l -1.064,-3.541 -1.279,0 0.979,3.261 c 0.117,0.39 0.181,0.635 0.193,0.736 0.043,0.394 -0.134,0.584 -0.53,0.584 -0.411,0 -0.827,-0.231 -1.249,-0.693 -0.42,-0.461 -0.747,-1.071 -0.976,-1.83 l -0.626,-2.058 -1.267,0 1.613,5.416 1.291,0 -0.383,-1.258 c 0.785,0.925 1.586,1.389 2.41,1.389 0.384,0 0.671,-0.102 0.865,-0.304 C -0.043,0.606 0.037,0.338 0,0 m -7.814,-1.182 c 0.116,1.011 -0.161,1.516 -0.824,1.516 -0.419,0 -0.812,-0.252 -1.18,-0.758 -0.369,-0.497 -0.591,-1.088 -0.666,-1.767 -0.125,-1.076 0.159,-1.612 0.844,-1.612 0.338,0 0.663,0.166 0.967,0.498 0.47,0.512 0.757,1.22 0.859,2.123 m 1.347,-0.163 c -0.104,-0.894 -0.477,-1.657 -1.127,-2.285 -0.65,-0.63 -1.382,-0.942 -2.197,-0.942 -0.679,0 -1.214,0.23 -1.602,0.691 -0.38,0.471 -0.529,1.067 -0.446,1.789 0.101,0.881 0.485,1.632 1.157,2.253 0.676,0.626 1.439,0.943 2.283,0.943 0.644,0 1.144,-0.232 1.502,-0.694 0.368,-0.456 0.511,-1.039 0.43,-1.755 m -5.791,2.318 -1.624,-5.416 -1.279,0 1.624,5.416 1.279,0 z m 0.613,1.765 c -0.029,-0.25 -0.137,-0.468 -0.325,-0.65 -0.184,-0.172 -0.4,-0.26 -0.646,-0.26 -0.195,0 -0.347,0.064 -0.456,0.184 -0.1,0.129 -0.139,0.298 -0.116,0.5 0.03,0.251 0.136,0.467 0.323,0.638 0.185,0.175 0.399,0.262 0.645,0.262 0.188,0 0.335,-0.066 0.444,-0.196 0.11,-0.123 0.153,-0.283 0.131,-0.478 m -2.91,-1.765 -0.212,-0.724 -1.3,0 -0.797,-2.622 c -0.127,-0.42 -0.197,-0.694 -0.212,-0.824 -0.039,-0.347 0.104,-0.52 0.439,-0.52 0.186,0 0.434,0.05 0.743,0.153 l -0.005,-0.705 c -0.478,-0.204 -0.945,-0.303 -1.398,-0.303 -0.838,0 -1.217,0.351 -1.138,1.05 0.009,0.101 0.107,0.447 0.28,1.041 l 0.809,2.73 -0.66,0 0.215,0.724 0.681,0 0.386,1.311 1.359,0.325 -0.489,-1.636 1.299,0 z m -3.825,-0.292 -0.557,-0.704 c -0.288,0.195 -0.575,0.293 -0.865,0.293 -0.533,0 -1.019,-0.234 -1.454,-0.705 -0.43,-0.469 -0.683,-1.033 -0.757,-1.69 -0.056,-0.485 0.004,-0.863 0.174,-1.137 0.172,-0.267 0.435,-0.401 0.789,-0.401 0.317,0 0.713,0.119 1.189,0.358 l 0.254,-0.715 c -0.728,-0.369 -1.399,-0.552 -2.013,-0.552 -0.621,0 -1.095,0.205 -1.425,0.616 -0.329,0.412 -0.454,0.962 -0.376,1.647 0.105,0.917 0.521,1.714 1.248,2.394 0.729,0.68 1.527,1.019 2.402,1.019 0.547,0 1.012,-0.143 1.391,-0.423 m -6.444,-0.953 c 0.02,0.179 -0.018,0.325 -0.112,0.433 -0.095,0.117 -0.234,0.173 -0.416,0.173 -0.375,0 -0.757,-0.179 -1.143,-0.54 -0.309,-0.29 -0.559,-0.684 -0.753,-1.181 0.447,0 0.695,0.013 0.743,0.042 0.449,0.028 0.834,0.145 1.153,0.348 0.321,0.201 0.497,0.442 0.528,0.725 m 1.18,0.086 c -0.065,-0.569 -0.416,-1.037 -1.047,-1.397 -0.626,-0.354 -1.423,-0.531 -2.39,-0.531 l -0.368,0 -0.026,-0.227 c -0.102,-0.896 0.226,-1.344 0.985,-1.344 0.398,0 0.89,0.149 1.48,0.445 l 0.26,-0.661 c -0.866,-0.447 -1.646,-0.671 -2.339,-0.671 -0.629,0 -1.087,0.165 -1.373,0.498 -0.339,0.389 -0.47,0.918 -0.394,1.581 0.107,0.953 0.546,1.791 1.315,2.514 0.767,0.72 1.603,1.083 2.506,1.083 0.469,0 0.828,-0.121 1.074,-0.357 0.257,-0.231 0.362,-0.543 0.317,-0.933 M -29.419,0 c -0.019,-0.174 -0.091,-0.476 -0.222,-0.902 l -1.062,-3.541 -1.279,0 0.978,3.261 c 0.117,0.39 0.181,0.635 0.192,0.736 0.044,0.394 -0.131,0.584 -0.529,0.584 -0.412,0 -0.829,-0.231 -1.249,-0.693 -0.42,-0.461 -0.747,-1.071 -0.978,-1.83 l -0.622,-2.058 -1.269,0 1.613,5.416 1.29,0 -0.383,-1.258 c 0.784,0.925 1.588,1.389 2.412,1.389 0.382,0 0.67,-0.102 0.865,-0.304 0.2,-0.194 0.283,-0.462 0.243,-0.8 m -6.356,0 c -0.02,-0.174 -0.095,-0.476 -0.222,-0.902 l -1.063,-3.541 -1.279,0 0.979,3.261 c 0.114,0.39 0.178,0.635 0.191,0.736 0.044,0.394 -0.133,0.584 -0.53,0.584 -0.411,0 -0.828,-0.231 -1.249,-0.693 -0.421,-0.461 -0.746,-1.071 -0.978,-1.83 l -0.624,-2.058 -1.267,0 1.613,5.416 1.29,0 -0.382,-1.258 c 0.784,0.925 1.588,1.389 2.41,1.389 0.384,0 0.672,-0.102 0.866,-0.304 0.2,-0.194 0.284,-0.462 0.245,-0.8 m -7.814,-1.182 c 0.116,1.011 -0.16,1.516 -0.823,1.516 -0.42,0 -0.813,-0.252 -1.181,-0.758 -0.369,-0.497 -0.59,-1.088 -0.668,-1.767 -0.123,-1.076 0.16,-1.612 0.844,-1.612 0.341,0 0.662,0.166 0.967,0.498 0.469,0.512 0.756,1.22 0.861,2.123 m 1.344,-0.163 c -0.101,-0.894 -0.476,-1.657 -1.125,-2.285 -0.649,-0.63 -1.383,-0.942 -2.198,-0.942 -0.679,0 -1.213,0.23 -1.601,0.691 -0.378,0.471 -0.528,1.067 -0.447,1.789 0.102,0.881 0.487,1.632 1.156,2.253 0.679,0.626 1.439,0.943 2.287,0.943 0.642,0 1.141,-0.232 1.501,-0.694 0.366,-0.456 0.511,-1.039 0.427,-1.755 m -5.238,2.026 -0.557,-0.704 c -0.287,0.195 -0.575,0.293 -0.865,0.293 -0.535,0 -1.02,-0.234 -1.455,-0.705 -0.429,-0.469 -0.682,-1.033 -0.756,-1.69 -0.056,-0.485 0.003,-0.863 0.173,-1.137 0.171,-0.267 0.435,-0.401 0.788,-0.401 0.319,0 0.715,0.119 1.19,0.358 l 0.254,-0.715 c -0.729,-0.369 -1.4,-0.552 -2.011,-0.552 -0.622,0 -1.097,0.205 -1.426,0.616 -0.329,0.412 -0.455,0.962 -0.376,1.647 0.103,0.917 0.52,1.714 1.247,2.394 0.727,0.68 1.527,1.019 2.402,1.019 0.548,0 1.012,-0.143 1.392,-0.423 m -8.85,-0.953 c 0.021,0.179 -0.016,0.325 -0.112,0.433 -0.096,0.117 -0.234,0.173 -0.414,0.173 -0.376,0 -0.757,-0.179 -1.145,-0.54 -0.307,-0.29 -0.558,-0.684 -0.752,-1.181 0.447,0 0.695,0.013 0.74,0.042 0.453,0.028 0.839,0.145 1.155,0.348 0.321,0.201 0.495,0.442 0.528,0.725 m 1.18,0.086 c -0.066,-0.569 -0.414,-1.037 -1.046,-1.397 -0.627,-0.354 -1.422,-0.531 -2.39,-0.531 l -0.369,0 -0.023,-0.227 c -0.105,-0.896 0.223,-1.344 0.982,-1.344 0.396,0 0.89,0.149 1.479,0.445 l 0.262,-0.661 c -0.867,-0.447 -1.648,-0.671 -2.339,-0.671 -0.63,0 -1.087,0.165 -1.375,0.498 -0.338,0.389 -0.47,0.918 -0.394,1.581 0.11,0.953 0.547,1.791 1.315,2.514 0.768,0.72 1.604,1.083 2.508,1.083 0.467,0 0.826,-0.121 1.074,-0.357 0.255,-0.231 0.361,-0.543 0.316,-0.933 M -60.926,0 c -0.02,-0.174 -0.093,-0.476 -0.221,-0.902 l -1.064,-3.541 -1.279,0 0.977,3.261 c 0.116,0.39 0.181,0.633 0.193,0.724 0.044,0.399 -0.133,0.596 -0.528,0.596 -0.412,0 -0.83,-0.231 -1.251,-0.693 -0.421,-0.461 -0.746,-1.071 -0.976,-1.83 l -0.624,-2.058 -1.267,0 2.379,7.961 1.277,0 -1.137,-3.803 c 0.793,0.933 1.592,1.399 2.402,1.399 0.383,0 0.674,-0.101 0.874,-0.303 0.201,-0.2 0.284,-0.473 0.245,-0.811 m -5.489,0.973 -0.212,-0.724 -1.301,0 -0.798,-2.622 c -0.127,-0.42 -0.196,-0.694 -0.211,-0.824 -0.039,-0.347 0.107,-0.52 0.438,-0.52 0.189,0 0.435,0.05 0.744,0.153 l -0.004,-0.705 c -0.479,-0.204 -0.944,-0.303 -1.399,-0.303 -0.838,0 -1.218,0.351 -1.139,1.05 0.013,0.101 0.107,0.447 0.282,1.041 l 0.81,2.73 -0.663,0 0.213,0.724 0.682,0 0.388,1.311 1.359,0.325 -0.49,-1.636 1.301,0 z m -7.832,-1.245 c 0.02,0.179 -0.018,0.325 -0.113,0.433 -0.096,0.117 -0.233,0.173 -0.414,0.173 -0.376,0 -0.759,-0.179 -1.146,-0.54 -0.308,-0.29 -0.557,-0.684 -0.751,-1.181 0.448,0 0.694,0.013 0.741,0.042 0.451,0.028 0.835,0.145 1.156,0.348 0.319,0.201 0.493,0.442 0.527,0.725 m 1.177,0.086 c -0.064,-0.569 -0.412,-1.037 -1.046,-1.397 -0.625,-0.354 -1.42,-0.531 -2.388,-0.531 l -0.369,0 -0.025,-0.227 c -0.103,-0.896 0.226,-1.344 0.983,-1.344 0.399,0 0.892,0.149 1.482,0.445 l 0.26,-0.661 c -0.868,-0.447 -1.647,-0.671 -2.34,-0.671 -0.629,0 -1.086,0.165 -1.373,0.498 -0.338,0.389 -0.47,0.918 -0.395,1.581 0.109,0.953 0.548,1.791 1.315,2.514 0.77,0.72 1.604,1.083 2.507,1.083 0.469,0 0.828,-0.121 1.074,-0.357 0.257,-0.231 0.36,-0.543 0.315,-0.933 m -5.073,0.716 -2.235,-1.94 1.274,-2.685 -1.329,-0.466 -1.153,3.097 -0.893,-2.979 -1.287,0 2.401,7.961 1.267,0 -1.418,-4.744 0.131,0 2.427,2.308 0.815,-0.552 z m -7.472,-1.116 c 0.031,0.261 -0.027,0.468 -0.176,0.627 -0.148,0.16 -0.351,0.24 -0.61,0.24 -0.479,0 -0.917,-0.274 -1.32,-0.823 -0.393,-0.542 -0.634,-1.197 -0.722,-1.962 -0.09,-0.794 0.123,-1.193 0.636,-1.193 0.504,0 0.994,0.377 1.47,1.128 0.405,0.637 0.645,1.298 0.722,1.983 m 1.804,1.559 -1.634,-5.416 -1.278,0 0.276,0.91 c -0.464,-0.396 -0.838,-0.673 -1.122,-0.822 -0.284,-0.145 -0.589,-0.217 -0.914,-0.217 -0.483,0 -0.845,0.188 -1.083,0.563 -0.232,0.376 -0.312,0.885 -0.238,1.528 0.11,0.959 0.496,1.798 1.163,2.511 0.666,0.717 1.389,1.074 2.169,1.074 0.549,0 0.949,-0.249 1.193,-0.747 l 0.191,0.616 1.277,0 z m -6.613,-1.007 c -0.021,-0.188 -0.113,-0.552 -0.278,-1.094 l -0.993,-3.315 -1.268,0 0.931,3.132 c 0.141,0.469 0.217,0.77 0.234,0.91 0.041,0.36 -0.109,0.539 -0.448,0.539 -0.389,0 -0.784,-0.225 -1.181,-0.68 -0.4,-0.45 -0.703,-1.012 -0.91,-1.69 l -0.661,-2.211 -1.29,0 0.912,3.066 c 0.165,0.549 0.252,0.867 0.26,0.953 0.042,0.374 -0.101,0.562 -0.434,0.562 -0.462,0 -0.912,-0.286 -1.355,-0.866 -0.322,-0.418 -0.582,-0.959 -0.779,-1.623 l -0.629,-2.092 -1.267,0 1.612,5.416 1.289,0 -0.333,-1.116 c 0.759,0.831 1.515,1.247 2.266,1.247 0.418,0 0.699,-0.131 0.843,-0.392 0.114,-0.201 0.151,-0.504 0.114,-0.909 0.768,0.868 1.542,1.301 2.313,1.301 0.786,0 1.139,-0.379 1.052,-1.138"
             id="path16292"
             style="fill:#0091d7;fill-opacity:1;fill-rule:nonzero;stroke:none" /></g></g></g></g></svg>