<?xml version="1.0" encoding="UTF-8"?>
<svg xmlns="http://www.w3.org/2000/svg" xmlns:xlink="http://www.w3.org/1999/xlink" width="937.7pt" height="317.2pt" viewBox="0 0 937.7 317.2" version="1.1">
<defs>
<clipPath id="clip1">
  <path d="M 0 0 L 286 0 L 286 317.199219 L 0 317.199219 Z M 0 0 "/>
</clipPath>
</defs>
<g id="surface1">
<path style=" stroke:none;fill-rule:evenodd;fill:rgb(94.921875%,77.34375%,48.631287%);fill-opacity:1;" d="M 66.308594 11.492188 C 85.890625 6.191406 106 3.011719 126.167969 1.132813 C 127.980469 0.859375 129.808594 0.992188 131.578125 1.449219 C 124.550781 2.890625 117.347656 3.121094 110.257813 4.070313 C 101.140625 5.402344 92.050781 6.878906 83.039063 8.839844 C 76.078125 10.199219 68.917969 11.351563 62.5 14.550781 C 58.929688 16.789063 58.550781 21.480469 58.628906 25.300781 C 58.769531 61.351563 58.398438 97.410156 58.828125 133.472656 C 57.257813 136.859375 57.867188 140.660156 57.800781 144.269531 C 57.949219 155.28125 57.488281 166.3125 58.097656 177.3125 C 57.839844 187.871094 57.417969 198.480469 58.117188 209.039063 L 57.539063 209.0625 C 57.710938 199.140625 58.070313 189.191406 57.289063 179.289063 C 58.167969 161.980469 57.539063 144.601563 57.558594 127.269531 C 57.507813 95.949219 57.550781 64.628906 57.539063 33.3125 C 57.597656 28.460938 57.238281 23.570313 57.878906 18.75 C 58.589844 14.679688 62.550781 12.28125 66.308594 11.492188 Z M 66.308594 11.492188 "/>
<g clip-path="url(#clip1)" clip-rule="nonzero">
<path style=" stroke:none;fill-rule:evenodd;fill:rgb(99.21875%,68.554688%,9.008789%);fill-opacity:1;" d="M 131.578125 1.449219 C 146.449219 -0.0078125 161.417969 1.660156 176.210938 3.289063 C 188.308594 5.171875 200.429688 7.101563 212.328125 10.03125 L 213.019531 10.539063 C 218.488281 11.121094 224.308594 12.429688 227.757813 17.128906 C 227.609375 72.851563 227.6875 128.582031 227.679688 184.3125 C 227.769531 192.742188 227.480469 201.171875 228 209.601563 C 227.769531 151.519531 227.960938 93.402344 227.898438 35.3125 C 227.929688 29.539063 227.597656 23.722656 228.667969 18.019531 C 228.308594 81.742188 228.710938 145.480469 228.46875 209.199219 C 226.9375 210.472656 225.410156 212.660156 223.160156 211.492188 C 213.917969 205.652344 205.027344 199.261719 195.769531 193.441406 C 194.621094 192.710938 193.660156 191.75 192.699219 190.800781 C 193 154.300781 192.75 117.78125 192.839844 81.269531 C 192.730469 68.160156 193.058594 55.03125 192.710938 41.921875 C 179.640625 39.652344 166.589844 36.621094 153.257813 36.78125 C 142.25 36.769531 131.179688 36.25 120.230469 37.652344 C 111.257813 38.550781 102.410156 40.351563 93.539063 41.972656 C 93.4375 64.832031 93.480469 87.691406 93.539063 110.539063 C 86.300781 115.710938 78.820313 120.550781 71.449219 125.53125 C 67.257813 128.210938 63.390625 131.429688 58.828125 133.472656 C 58.398438 97.410156 58.769531 61.351563 58.628906 25.300781 C 58.550781 21.480469 58.929688 16.789063 62.5 14.550781 C 68.917969 11.351563 76.078125 10.199219 83.039063 8.839844 C 92.050781 6.878906 101.140625 5.402344 110.257813 4.070313 C 117.347656 3.121094 124.550781 2.890625 131.578125 1.449219 Z M 26.449219 43.601563 C 29.578125 42.609375 32.359375 40.472656 35.78125 40.550781 C 35.597656 89.480469 35.789063 138.410156 35.679688 187.339844 C 35.667969 190.671875 35.667969 194 36.019531 197.3125 C 37.078125 208.132813 41.007813 218.519531 46.640625 227.789063 C 56.589844 242.519531 71 253.8125 86.871094 261.601563 C 100.347656 268.199219 114.6875 272.972656 129.308594 276.332031 C 134.53125 277.421875 139.730469 279.570313 145.148438 278.839844 C 152.238281 277.640625 159.1875 275.820313 166.167969 274.132813 C 188.917969 267.53125 211.960938 258.171875 228.71875 240.851563 C 241.679688 228.539063 249.917969 211.160156 250.640625 193.242188 C 250.597656 142.3125 250.679688 91.371094 250.597656 40.429688 C 254.75 40.941406 258.417969 43.03125 262.300781 44.421875 C 269.359375 47.5 276.828125 49.902344 283.1875 54.351563 C 285.75 56.082031 285.769531 59.460938 285.769531 62.222656 C 285.679688 107.242188 285.871094 152.25 285.679688 197.269531 C 284.507813 219.742188 275.199219 241.582031 260.257813 258.371094 C 256.1875 262.230469 253.050781 267.011719 248.4375 270.28125 C 227.5 288.882813 201.730469 301.070313 175.269531 309.601563 C 166.007813 312.339844 156.699219 314.949219 147.210938 316.730469 C 144.179688 317.171875 141.058594 317.199219 138.070313 316.519531 C 103.480469 309.28125 69.449219 296.019531 41.738281 273.691406 C 26.210938 260.800781 13.238281 244.421875 6.230469 225.371094 C 2.519531 214.421875 0.398438 202.890625 0.628906 191.320313 C 0.539063 147.640625 0.597656 103.972656 0.597656 60.300781 C 0.0195313 55.910156 4.070313 53.269531 7.480469 51.621094 C 13.738281 48.820313 20.039063 46.0625 26.449219 43.601563 Z M 26.449219 43.601563 "/>
</g>
<path style=" stroke:none;fill-rule:evenodd;fill:rgb(9.812927%,17.259216%,36.473083%);fill-opacity:1;" d="M 375.25 24.890625 C 386.808594 21.902344 399.558594 21.492188 410.769531 26.011719 C 410.910156 40.800781 410.871094 55.601563 410.808594 70.390625 C 410.890625 74.621094 404.019531 75.699219 402.621094 71.769531 C 401.550781 58.582031 402.488281 45.269531 401.75 32.0625 C 395 31.261719 388.179688 30.8125 381.5 32.421875 C 381.449219 45.101563 381.648438 57.800781 381.417969 70.480469 C 381.25 75.5 372.847656 75.332031 372.890625 70.339844 C 372.738281 56.320313 372.847656 42.289063 372.828125 28.269531 C 372.5 26.621094 373.679688 25.199219 375.25 24.890625 Z M 431.539063 102 C 443.210938 98.402344 455.828125 98.699219 467.539063 102.03125 C 468.769531 104.972656 468.320313 108.199219 468.390625 111.300781 C 468.390625 122.320313 468.347656 133.339844 468.417969 144.359375 C 468.507813 146.152344 468.039063 147.902344 467.597656 149.621094 C 464.871094 152.011719 459.839844 151.121094 459.6875 147 C 459.519531 134.339844 459.660156 121.679688 459.609375 109.019531 C 452.738281 107.742188 445.71875 107.671875 438.859375 109.070313 C 438.800781 121.789063 438.9375 134.511719 438.789063 147.230469 C 438.898438 150.640625 433.878906 152.300781 431.667969 149.871094 C 430.199219 148.832031 430.371094 146.902344 430.339844 145.332031 C 430.390625 131.972656 430.378906 118.621094 430.347656 105.261719 C 430.449219 104.191406 430.199219 102.390625 431.539063 102 Z M 431.539063 102 "/>
<path style=" stroke:none;fill-rule:evenodd;fill:rgb(10.205078%,17.259216%,36.083984%);fill-opacity:1;" d="M 513.300781 23.789063 C 522.078125 21.691406 531.550781 22.410156 539.910156 25.8125 C 540.28125 40.652344 540.03125 55.511719 540.039063 70.359375 C 540.1875 73.921875 534.867188 75.601563 532.75 72.902344 C 531.089844 71.539063 531.679688 69.222656 531.53125 67.371094 C 531.648438 55.800781 531.390625 44.242188 531.667969 32.679688 C 526.488281 30.75 520.917969 31.371094 515.589844 32.089844 C 514.6875 36.121094 515.527344 40.230469 515.347656 44.3125 C 515.25 52.300781 515.300781 60.289063 515.328125 68.289063 C 515.480469 70.609375 514.609375 73.429688 512.097656 74.089844 C 510.128906 74.691406 508.417969 73.5 506.859375 72.511719 C 506.148438 59.25 506.640625 45.929688 506.609375 32.660156 C 501.589844 30.949219 496.121094 31.25 490.96875 32.109375 C 490.75 32.382813 490.300781 32.941406 490.078125 33.210938 C 489.867188 45.632813 490.167969 58.0625 489.960938 70.480469 C 489.867188 75 482.589844 75.742188 481.621094 71.242188 C 481.269531 56.28125 481.417969 41.28125 481.550781 26.3125 C 481.949219 26 482.738281 25.378906 483.140625 25.070313 C 490.28125 22.980469 497.828125 21.859375 505.21875 23.191406 C 507.878906 23.640625 510.589844 24.582031 513.300781 23.789063 Z M 464.800781 261.921875 C 468.710938 255.140625 477.648438 253.289063 484.800781 255.039063 C 487.839844 256 491.199219 257.171875 492.808594 260.171875 C 491.769531 262.160156 489.460938 263.640625 487.277344 262.382813 C 482.210938 259.722656 474.929688 259.3125 470.980469 264.089844 C 467.960938 267.441406 468.628906 272.199219 468.578125 276.339844 C 468.710938 281.519531 468.378906 286.730469 468.730469 291.902344 C 469.320313 297.390625 474.839844 301.21875 480.167969 300.660156 C 483.417969 300.679688 486.121094 298.601563 489.179688 297.882813 C 491.640625 297.390625 493.550781 301.171875 491.539063 302.832031 C 483.449219 309.199219 469.210938 307.742188 464.238281 298.132813 C 461.269531 292.660156 462.679688 286.222656 462.359375 280.28125 C 462.640625 274.152344 461.199219 267.378906 464.800781 261.921875 Z M 464.800781 261.921875 "/>
<path style=" stroke:none;fill-rule:evenodd;fill:rgb(9.812927%,16.868591%,36.863708%);fill-opacity:1;" d="M 560.820313 24.222656 C 563.269531 21.679688 568.820313 22.171875 568.828125 26.371094 C 568.910156 41.3125 568.96875 56.28125 568.789063 71.222656 C 568.128906 74.421875 564.460938 74.449219 561.9375 73.769531 C 559.679688 70.710938 560.6875 66.769531 560.488281 63.25 C 560.730469 50.242188 560.089844 37.199219 560.820313 24.222656 Z M 560.820313 24.222656 "/>
<path style=" stroke:none;fill-rule:evenodd;fill:rgb(9.812927%,16.868591%,35.693359%);fill-opacity:1;" d="M 643.5 26.25 C 643.429688 21.421875 651.867188 21.449219 651.710938 26.320313 C 651.898438 40.320313 651.679688 54.332031 651.808594 68.339844 C 651.679688 69.839844 652.058594 71.691406 650.769531 72.8125 C 649 75.109375 645.578125 74.191406 643.699219 72.511719 C 643.109375 57.109375 643.488281 41.660156 643.5 26.25 Z M 643.5 26.25 "/>
<path style=" stroke:none;fill-rule:evenodd;fill:rgb(10.205078%,17.259216%,36.473083%);fill-opacity:1;" d="M 428.828125 36.210938 C 430.898438 28.449219 438.75 23.972656 446.199219 22.722656 C 454.710938 23.371094 464.96875 28.730469 465.5 38.28125 C 465.589844 48.949219 465.578125 59.621094 465.519531 70.289063 C 465.589844 74.859375 458.167969 75.640625 456.980469 71.421875 C 456.558594 66.128906 456.878906 60.8125 456.847656 55.5 C 450.390625 55.441406 443.929688 55.472656 437.46875 55.460938 C 437.308594 60.691406 437.769531 65.949219 437.257813 71.160156 C 436.597656 74.820313 430.917969 75.25 429.289063 72.179688 C 428.480469 70.980469 428.539063 69.351563 428.9375 68.03125 C 430.9375 63.339844 429.730469 58.160156 430.179688 53.242188 C 430.039063 47.742188 431.070313 41.949219 429 36.691406 Z M 437.679688 37.332031 C 437.210938 41.75 437.519531 46.210938 437.5 50.652344 C 439.398438 49.449219 441.210938 48.089844 443.179688 46.980469 C 447.6875 46.519531 452.25 46.960938 456.789063 46.800781 C 456.699219 43.5625 457.109375 40.261719 456.488281 37.0625 C 454.6875 33.722656 450.71875 32.179688 447.167969 31.679688 C 443.507813 32.121094 439.269531 33.75 437.679688 37.332031 Z M 513.828125 105.210938 C 512.140625 101.171875 517.910156 97.839844 520.800781 100.8125 C 522.660156 103.679688 523.148438 107.191406 524.308594 110.359375 C 527.199219 119.011719 529.410156 127.910156 532.597656 136.441406 C 536.121094 125.25 539.5 114.011719 542.980469 102.8125 C 543.800781 99.332031 548.929688 98.632813 550.757813 101.640625 C 552.378906 103.710938 550.75 106.171875 550.199219 108.320313 C 546.21875 121.019531 542.109375 133.679688 538.167969 146.402344 C 537.519531 148.050781 536.929688 150.109375 535.128906 150.851563 C 532.140625 152.621094 528 150.710938 527.238281 147.378906 C 522.699219 133.351563 518.25 119.28125 513.828125 105.210938 Z M 672.210938 103.351563 C 677.230469 99.28125 684.210938 99.210938 690.277344 100.351563 C 693.128906 101.0625 696.558594 101.621094 698.269531 104.3125 C 699.417969 106.039063 698.210938 108.050781 697.4375 109.660156 C 693.148438 111.28125 689.4375 107.589844 685.1875 107.761719 C 682.109375 107.480469 678.460938 108.070313 676.667969 110.878906 C 675.890625 113.0625 676.097656 115.890625 678.148438 117.320313 C 683.5 120.882813 690.027344 122.339844 695.160156 126.28125 C 699.988281 129.871094 700.988281 136.8125 699.160156 142.230469 C 696.398438 149.230469 688.167969 152.152344 681.148438 151.429688 C 676.429688 150.871094 671.210938 150.171875 667.648438 146.691406 C 667.6875 144.75 667.378906 142.410156 669.328125 141.210938 C 671.648438 139.960938 674.140625 141.402344 676.390625 142.109375 C 680.4375 143.550781 685.21875 144.339844 689.097656 141.992188 C 692.128906 140.070313 692.367188 135.320313 689.699219 133 C 684.199219 128.742188 676.847656 127.5625 671.621094 122.890625 C 666.03125 117.890625 666.417969 108.039063 672.210938 103.351563 Z M 672.210938 103.351563 "/>
<path style=" stroke:none;fill-rule:evenodd;fill:rgb(10.205078%,17.259216%,36.863708%);fill-opacity:1;" d="M 591.710938 27.332031 C 592.167969 23.121094 597.019531 23.101563 600.257813 23.230469 C 606.230469 23.75 613.007813 22.339844 618.058594 26.429688 C 624.4375 31.511719 624.199219 42.039063 618.109375 47.289063 C 626.460938 52.609375 626.070313 66.839844 617.339844 71.539063 C 611.109375 74.832031 603.828125 73.332031 597.097656 73.640625 C 594.789063 73.871094 593.019531 72.269531 591.660156 70.640625 C 591.648438 56.199219 591.507813 41.761719 591.710938 27.332031 Z M 600.429688 31.050781 C 599.800781 36.539063 600.210938 42.082031 600.097656 47.589844 C 602.007813 46.449219 603.769531 45.070313 605.71875 43.980469 C 607.757813 43.3125 610.160156 43.519531 611.917969 42.121094 C 615.417969 39.761719 614.75 33.472656 610.800781 31.941406 C 607.480469 30.691406 603.871094 31.242188 600.429688 31.050781 Z M 600.140625 51.589844 C 600.070313 56.28125 600.078125 60.972656 600.109375 65.660156 C 603.9375 65.472656 607.910156 66.109375 611.617188 64.921875 C 616.019531 63.421875 617.160156 56.902344 613.75 53.839844 C 610.160156 50.300781 604.628906 52.0625 600.140625 51.589844 Z M 679.148438 26.101563 C 683.320313 23.820313 688.289063 21.570313 693.039063 23.472656 C 699.660156 25.261719 706.730469 29.902344 707.578125 37.25 C 707.828125 48.699219 707.589844 60.160156 707.699219 71.609375 C 705.917969 75.28125 699.710938 75.050781 699.027344 70.722656 C 698.71875 65.621094 699.148438 60.492188 698.839844 55.390625 C 692.417969 55.519531 685.988281 55.441406 679.570313 55.449219 C 679.46875 60.730469 679.871094 66.03125 679.429688 71.300781 C 678.949219 73.339844 676.871094 73.992188 675.210938 74.75 C 673.371094 73.859375 670.859375 72.820313 670.960938 70.339844 C 670.820313 60 670.960938 49.652344 670.898438 39.3125 C 670.660156 33.722656 674.410156 28.699219 679.148438 26.101563 Z M 679.878906 37.132813 C 679.230469 41.632813 679.757813 46.222656 679.558594 50.75 C 681.519531 49.53125 683.449219 48.242188 685.308594 46.839844 C 689.847656 46.78125 694.390625 46.820313 698.9375 46.820313 C 698.410156 42.851563 700.480469 37.570313 696.738281 34.730469 C 694.371094 32.921875 691.328125 31.511719 688.300781 31.769531 C 685.050781 32.550781 681.507813 33.992188 679.878906 37.132813 Z M 373.089844 102.429688 C 375.238281 100.191406 378.589844 98.992188 381.660156 99.699219 C 382.398438 111.929688 381.558594 124.222656 382.078125 136.449219 C 383.089844 140.851563 388.167969 142.699219 392.1875 143.082031 C 396.25 142.742188 401.4375 140.832031 402.480469 136.421875 C 403 124.332031 402.050781 112.152344 402.910156 100.101563 C 405.757813 98.5 409.730469 100.332031 411.558594 102.761719 C 411.9375 112.269531 411.578125 121.8125 411.71875 131.339844 C 411.597656 134.941406 412.257813 138.929688 410.121094 142.109375 C 407.148438 147.359375 401.359375 150.109375 395.769531 151.640625 C 391.128906 152.941406 386.4375 150.960938 382.269531 149.0625 C 377.019531 146.589844 372.367188 141.511719 372.820313 135.351563 C 373.007813 124.378906 372.449219 113.359375 373.089844 102.429688 Z M 568.4375 104.199219 C 568.710938 101.949219 570.917969 100.28125 573.167969 100.570313 C 580.179688 100.539063 587.199219 100.480469 594.21875 100.601563 C 595.539063 100.511719 596.550781 101.492188 597.660156 102.050781 C 598.167969 104.582031 598.109375 107.570313 595.277344 108.652344 C 589.078125 108.699219 582.871094 108.652344 576.667969 108.679688 C 576.71875 113.820313 576.710938 118.960938 576.6875 124.101563 C 578.320313 122.960938 579.929688 121.8125 581.539063 120.628906 C 585.757813 120.691406 590.007813 120.332031 594.21875 120.769531 C 598.269531 121.539063 597.949219 128.378906 593.828125 128.730469 C 588.121094 129.011719 582.390625 128.742188 576.679688 128.820313 C 576.730469 133.421875 576.679688 138.011719 576.730469 142.609375 C 582.898438 142.652344 589.078125 142.429688 595.257813 142.699219 C 598.117188 142.660156 599.527344 146.902344 597.789063 148.960938 C 596.910156 150.628906 594.859375 150.820313 593.1875 150.761719 C 586.507813 150.742188 579.820313 150.789063 573.140625 150.742188 C 570.230469 150.871094 568.027344 148.152344 568.089844 145.382813 C 568.128906 136.011719 568.480469 126.632813 568.109375 117.261719 C 568.757813 112.910156 567.53125 108.5 568.4375 104.199219 Z M 617.46875 106.261719 C 617.070313 103.460938 619.050781 100.222656 622.160156 100.570313 C 628.449219 100.742188 634.890625 99.910156 641.078125 101.242188 C 649.359375 103.550781 652.910156 113.679688 649.808594 121.25 C 648.410156 125.179688 644.800781 127.730469 641.050781 129.191406 C 644.230469 134.371094 647.449219 139.53125 650.539063 144.78125 C 651.617188 146.539063 650.871094 148.609375 650.289063 150.410156 C 649.21875 150.839844 648.167969 151.289063 647.128906 151.761719 C 645.710938 151.109375 643.988281 150.78125 643.25 149.261719 C 639.199219 142.921875 635.589844 136.3125 631.4375 130.039063 C 629.578125 130.050781 627.71875 130.050781 625.871094 130.050781 C 625.757813 136.109375 626.089844 142.199219 625.730469 148.25 C 625.769531 150.171875 623.570313 150.769531 622.347656 151.78125 C 620.539063 151.019531 617.570313 150.871094 617.609375 148.289063 C 617.28125 134.289063 617.578125 120.269531 617.46875 106.261719 Z M 625.800781 108.621094 C 625.929688 114.441406 625.820313 120.261719 625.878906 126.082031 C 627.628906 124.859375 629.257813 123.390625 631.238281 122.519531 C 634.167969 121.460938 638.058594 123.082031 640.359375 120.421875 C 644.089844 117.152344 642.539063 110.191406 637.808594 108.769531 C 633.828125 108.269531 629.800781 108.582031 625.800781 108.621094 Z M 625.800781 108.621094 "/>
<path style=" stroke:none;fill-rule:evenodd;fill:rgb(98.4375%,99.609375%,100%);fill-opacity:1;" d="M 600.429688 31.050781 C 603.871094 31.242188 607.480469 30.691406 610.800781 31.941406 C 614.75 33.472656 615.417969 39.761719 611.917969 42.121094 C 610.160156 43.519531 607.757813 43.3125 605.71875 43.980469 C 603.769531 45.070313 602.007813 46.449219 600.097656 47.589844 C 600.210938 42.082031 599.800781 36.539063 600.429688 31.050781 Z M 600.429688 31.050781 "/>
<path style=" stroke:none;fill-rule:evenodd;fill:rgb(98.826599%,99.21875%,100%);fill-opacity:1;" d="M 679.878906 37.132813 C 681.507813 33.992188 685.050781 32.550781 688.300781 31.769531 C 691.328125 31.511719 694.371094 32.921875 696.738281 34.730469 C 700.480469 37.570313 698.410156 42.851563 698.9375 46.820313 C 694.390625 46.820313 689.847656 46.78125 685.308594 46.839844 C 683.449219 48.242188 681.519531 49.53125 679.558594 50.75 C 679.757813 46.222656 679.230469 41.632813 679.878906 37.132813 Z M 679.878906 37.132813 "/>
<path style=" stroke:none;fill-rule:evenodd;fill:rgb(99.21875%,99.609375%,100%);fill-opacity:1;" d="M 437.679688 37.332031 C 439.269531 33.75 443.507813 32.121094 447.167969 31.679688 C 450.71875 32.179688 454.6875 33.722656 456.488281 37.0625 C 457.109375 40.261719 456.699219 43.5625 456.789063 46.800781 C 452.25 46.960938 447.6875 46.519531 443.179688 46.980469 C 441.210938 48.089844 439.398438 49.449219 437.5 50.652344 C 437.519531 46.210938 437.210938 41.75 437.679688 37.332031 Z M 437.679688 37.332031 "/>
<path style=" stroke:none;fill-rule:evenodd;fill:rgb(7.835388%,13.330078%,27.830505%);fill-opacity:1;" d="M 429 36.691406 C 431.070313 41.949219 430.039063 47.742188 430.179688 53.242188 C 429.730469 58.160156 430.9375 63.339844 428.9375 68.03125 C 428.660156 57.589844 428.519531 47.121094 429 36.691406 Z M 429 36.691406 "/>
<path style=" stroke:none;fill-rule:evenodd;fill:rgb(98.826599%,99.21875%,99.609375%);fill-opacity:1;" d="M 600.140625 51.589844 C 604.628906 52.0625 610.160156 50.300781 613.75 53.839844 C 617.160156 56.902344 616.019531 63.421875 611.617188 64.921875 C 607.910156 66.109375 603.9375 65.472656 600.109375 65.660156 C 600.078125 60.972656 600.070313 56.28125 600.140625 51.589844 Z M 810.9375 193.121094 C 811.820313 189.199219 815.757813 187.28125 819.25 186.171875 C 822.890625 184.832031 826.710938 186.839844 829.730469 188.789063 C 834.238281 192.140625 832.398438 198.3125 832.808594 203.089844 C 828.929688 203.089844 825.058594 203.0625 821.1875 203.0625 C 817 202.652344 814.1875 206.300781 810.871094 208.191406 C 810.878906 203.160156 810.71875 198.132813 810.9375 193.121094 Z M 810.9375 193.121094 "/>
<path style=" stroke:none;fill-rule:evenodd;fill:rgb(72.459412%,12.547302%,14.501953%);fill-opacity:1;" d="M 164.558594 62.601563 C 167.929688 60.019531 173.589844 59.382813 176.410156 63.101563 C 179.097656 66.890625 179.667969 71.71875 179.667969 76.25 C 179.628906 95.632813 179.710938 115 179.617188 134.382813 C 141.257813 159.742188 103.070313 185.359375 64.738281 210.742188 C 62.609375 212.679688 58.699219 212.152344 58.117188 209.039063 C 57.417969 198.480469 57.839844 187.871094 58.097656 177.3125 C 57.488281 166.3125 57.949219 155.28125 57.800781 144.269531 C 57.867188 140.660156 57.257813 136.859375 58.828125 133.472656 C 63.390625 131.429688 67.257813 128.210938 71.449219 125.53125 C 78.820313 120.550781 86.300781 115.710938 93.539063 110.539063 C 117.160156 94.492188 140.898438 78.601563 164.558594 62.601563 Z M 164.558594 62.601563 "/>
<path style=" stroke:none;fill-rule:evenodd;fill:rgb(9.812927%,16.479492%,36.473083%);fill-opacity:1;" d="M 489.21875 101.289063 C 491.058594 98.371094 496.777344 99.730469 496.71875 103.359375 C 496.878906 117.671875 496.730469 131.992188 496.800781 146.300781 C 496.9375 147.890625 496.179688 149.300781 495.53125 150.679688 C 493 152.050781 488.820313 151.5625 488.507813 148.132813 C 488.210938 134.199219 488.507813 120.242188 488.359375 106.300781 C 488.460938 104.632813 488.078125 102.710938 489.21875 101.289063 Z M 489.21875 101.289063 "/>
<path style=" stroke:none;fill-rule:evenodd;fill:rgb(9.423828%,16.868591%,36.863708%);fill-opacity:1;" d="M 718.75 103.402344 C 718.757813 100.621094 721.789063 99.472656 724.167969 99.699219 C 724.75 100.070313 725.898438 100.820313 726.480469 101.191406 C 727.328125 104.160156 727.007813 107.261719 727.027344 110.3125 C 727.019531 122.300781 726.960938 134.300781 727.1875 146.28125 C 727.488281 149.011719 725.621094 150.859375 723.300781 151.871094 C 721.769531 151.140625 719.898438 150.789063 719.007813 149.199219 C 718.507813 146.921875 718.679688 144.570313 718.660156 142.269531 C 718.730469 129.3125 718.539063 116.351563 718.75 103.402344 Z M 718.75 103.402344 "/>
<path style=" stroke:none;fill-rule:evenodd;fill:rgb(9.812927%,16.868591%,36.473083%);fill-opacity:1;" d="M 745.429688 100.640625 C 755.328125 100.460938 765.25 100.53125 775.160156 100.601563 C 779.417969 100.402344 780.230469 107.300781 776.140625 108.359375 C 772.390625 109.0625 768.527344 108.492188 764.738281 108.722656 C 764.78125 121.5625 764.800781 134.410156 764.738281 147.242188 C 764.9375 149.890625 762.269531 151.128906 760.1875 151.839844 C 758.917969 150.941406 756.960938 150.480469 756.550781 148.78125 C 755.640625 145.371094 756.050781 141.78125 756.121094 138.300781 C 756.878906 128.421875 755.867188 118.539063 756.050781 108.671875 C 752.378906 108.699219 748.710938 108.699219 745.050781 108.609375 C 744.539063 108.28125 743.519531 107.632813 743 107.300781 C 742.570313 106.242188 742.140625 105.199219 741.71875 104.152344 C 742.757813 102.839844 743.378906 100.539063 745.429688 100.640625 Z M 745.429688 100.640625 "/>
<path style=" stroke:none;fill-rule:evenodd;fill:rgb(10.594177%,17.259216%,36.863708%);fill-opacity:1;" d="M 787.878906 104.769531 C 786.519531 100.78125 792.910156 97.601563 795.109375 101.320313 C 798.71875 107.519531 802.167969 113.832031 805.5 120.199219 C 809.25 114.269531 812.1875 107.859375 815.777344 101.839844 C 816.980469 99.039063 821.410156 99.019531 822.808594 101.660156 C 824.660156 103.949219 822.417969 106.480469 821.371094 108.550781 C 817.648438 115.460938 813.269531 122.019531 809.898438 129.089844 C 809.488281 135.679688 810.25 142.332031 809.578125 148.902344 C 808.167969 152.210938 804.050781 151.902344 801.699219 149.8125 C 801.109375 142.929688 801.679688 136.019531 801.371094 129.128906 C 797.300781 120.800781 791.949219 113.109375 787.878906 104.769531 Z M 792.589844 254.839844 C 793.890625 253.980469 795.949219 254.269531 796.699219 255.742188 C 800.46875 262.460938 804.058594 269.289063 807.75 276.0625 C 807.96875 276.0625 808.417969 276.070313 808.648438 276.070313 C 812.148438 269.460938 815.699219 262.871094 819.308594 256.332031 C 819.96875 254.539063 822.210938 253.878906 823.839844 254.800781 C 825.128906 256.011719 825.1875 258.132813 824.449219 259.660156 C 820.238281 267.609375 815.527344 275.3125 811.550781 283.371094 C 811.160156 290.371094 811.75 297.410156 811.320313 304.410156 C 810.300781 307.441406 805.621094 307.300781 805.007813 304.082031 C 804.488281 296.992188 805.417969 289.789063 804.578125 282.761719 C 800.410156 274.730469 795.949219 266.839844 791.738281 258.832031 C 790.859375 257.550781 791.179688 255.570313 792.589844 254.839844 Z M 792.589844 254.839844 "/>
<path style=" stroke:none;fill-rule:evenodd;fill:rgb(98.826599%,99.609375%,99.609375%);fill-opacity:1;" d="M 625.800781 108.621094 C 629.800781 108.582031 633.828125 108.269531 637.808594 108.769531 C 642.539063 110.191406 644.089844 117.152344 640.359375 120.421875 C 638.058594 123.082031 634.167969 121.460938 631.238281 122.519531 C 629.257813 123.390625 627.628906 124.859375 625.878906 126.082031 C 625.820313 120.261719 625.929688 114.441406 625.800781 108.621094 Z M 625.800781 108.621094 "/>
<path style=" stroke:none;fill-rule:evenodd;fill:rgb(10.205078%,16.868591%,35.693359%);fill-opacity:1;" d="M 386.859375 177.199219 C 393.460938 176.199219 401.308594 178.511719 404.550781 184.78125 C 407.699219 190.089844 406.5 196.449219 406.738281 202.300781 C 406.46875 208.539063 407.757813 215.230469 404.808594 221.03125 C 398.96875 232.339844 379.507813 231.980469 374.328125 220.261719 C 372.027344 214.910156 373.03125 208.960938 372.828125 203.3125 C 373.070313 197.351563 371.890625 190.980469 374.621094 185.410156 C 376.910156 180.75 381.75 177.730469 386.859375 177.199219 Z M 386.410156 183.441406 C 381.410156 184.339844 378.808594 189.53125 379.039063 194.25 C 379.210938 201.410156 378.53125 208.640625 379.480469 215.75 C 381.148438 225.289063 397.070313 225.871094 399.847656 216.789063 C 401.160156 211.75 400.269531 206.460938 400.519531 201.320313 C 400.328125 195.941406 401.667969 189.410156 397.167969 185.359375 C 394.148438 183.140625 390.019531 182.429688 386.410156 183.441406 Z M 742.699219 177.820313 C 750.417969 177.679688 758.148438 177.621094 765.871094 177.8125 C 768.960938 178.011719 769.300781 182.710938 766.398438 183.722656 C 759.890625 183.960938 753.378906 183.789063 746.867188 183.789063 C 746.820313 188.851563 746.859375 193.902344 746.820313 198.960938 C 753.007813 199.070313 759.199219 198.839844 765.390625 199.050781 C 767.9375 199.929688 767.6875 202.882813 766.507813 204.800781 C 759.96875 205.300781 753.410156 204.960938 746.859375 205.011719 C 746.800781 210.671875 746.960938 216.339844 746.757813 222 C 754.019531 222.78125 761.570313 220.980469 768.628906 223.101563 C 768.578125 224.660156 769.289063 226.671875 767.6875 227.730469 C 765.359375 228.851563 762.730469 228.152344 760.28125 228.171875 C 754.609375 227.8125 748.929688 228.890625 743.289063 228 C 741.5 227.820313 740.378906 226.109375 740.640625 224.390625 C 740.628906 209.511719 740.507813 194.621094 740.71875 179.730469 C 741.367188 179.089844 742.03125 178.449219 742.699219 177.820313 Z M 425.699219 178.980469 C 428.238281 177.359375 431.289063 177.789063 434.148438 177.769531 C 439.929688 177.8125 445.710938 177.730469 451.5 177.839844 C 453.019531 179.480469 453.539063 182.171875 451.4375 183.621094 C 444.847656 184.230469 438.179688 183.742188 431.570313 183.839844 C 431.480469 188.910156 431.539063 193.992188 431.488281 199.0625 C 438.21875 199.519531 445.167969 198.160156 451.75 199.960938 C 451.808594 201.5 451.757813 203.039063 451.558594 204.582031 C 449.5 205.242188 447.371094 205.589844 445.210938 205.410156 C 440.628906 205.519531 436.058594 205.441406 431.488281 205.5 C 431.558594 211.761719 431.507813 218.03125 431.53125 224.300781 C 431.609375 225.871094 431.140625 227.378906 430.589844 228.851563 C 428.429688 229.28125 425.359375 229.382813 425.078125 226.492188 C 424.871094 214.429688 425.070313 202.359375 425 190.289063 C 425.058594 186.511719 424.519531 182.652344 425.699219 178.980469 Z M 425.699219 178.980469 "/>
<path style=" stroke:none;fill-rule:evenodd;fill:rgb(10.594177%,16.868591%,35.693359%);fill-opacity:1;" d="M 503.839844 177.160156 C 509.167969 176.601563 514.917969 177.160156 519.597656 179.929688 C 521.648438 181.421875 520.660156 185.171875 518.050781 185.171875 C 514.359375 184.800781 511.019531 182.699219 507.25 182.902344 C 504.039063 182.75 500.519531 183.902344 498.820313 186.800781 C 496.929688 189.660156 498.167969 193.8125 500.949219 195.609375 C 506.449219 199.269531 513.199219 200.910156 518.160156 205.421875 C 521.960938 209.050781 522.578125 214.8125 521.328125 219.679688 C 519.539063 224.742188 514.507813 228.128906 509.289063 228.78125 C 503.847656 229.390625 498.179688 228.492188 493.257813 226.070313 C 491.210938 225.109375 491.128906 222.160156 492.769531 220.769531 C 494.980469 219.871094 497.140625 221.171875 499.210938 221.859375 C 502.058594 222.980469 505.179688 223.152344 508.21875 222.929688 C 512.058594 222.582031 515.9375 219.359375 515.648438 215.230469 C 515.9375 211.261719 512.578125 208.492188 509.339844 206.949219 C 504.6875 204.402344 499.4375 202.761719 495.449219 199.160156 C 490.300781 194.480469 490.410156 185.402344 495.648438 180.839844 C 497.859375 178.691406 500.878906 177.722656 503.839844 177.160156 Z M 605.839844 177.832031 C 613.320313 177.652344 620.808594 177.691406 628.289063 177.742188 C 631.570313 177.351563 632.699219 182.359375 629.699219 183.628906 C 623.121094 184.101563 616.488281 183.691406 609.898438 183.839844 C 609.929688 188.871094 609.917969 193.902344 609.917969 198.929688 C 616.179688 199.039063 622.4375 198.929688 628.710938 199 C 629.398438 199.679688 630.097656 200.371094 630.808594 201.0625 C 630.390625 202.339844 629.96875 203.609375 629.550781 204.890625 C 622.988281 205.25 616.429688 204.929688 609.878906 205.082031 C 609.9375 210.761719 609.917969 216.429688 609.910156 222.109375 C 616.367188 222.210938 622.847656 221.980469 629.308594 222.210938 C 631.871094 222.28125 632.589844 225.53125 631.238281 227.289063 C 630.1875 228.289063 628.609375 228.421875 627.257813 228.332031 C 619.960938 227.871094 612.609375 228.8125 605.359375 227.949219 C 604.628906 226.871094 603.53125 225.882813 603.699219 224.460938 C 603.679688 209.582031 603.589844 194.691406 603.757813 179.8125 C 604.4375 179.152344 605.140625 178.480469 605.839844 177.832031 Z M 506.847656 258.3125 C 506.449219 256.152344 508.257813 254.691406 510.128906 254.179688 C 510.738281 254.410156 511.949219 254.878906 512.558594 255.109375 C 514.449219 262 512.898438 269.351563 513.410156 276.429688 C 519.949219 276.550781 526.488281 276.570313 533.027344 276.421875 C 533.089844 270.0625 532.757813 263.671875 533.148438 257.320313 C 533.210938 254.441406 536.449219 254.050781 538.558594 254.921875 C 539.257813 256.609375 539.609375 258.421875 539.488281 260.261719 C 539.308594 274.910156 539.667969 289.589844 539.308594 304.230469 C 538.597656 307.878906 532.949219 306.980469 533.109375 303.390625 C 532.808594 296.460938 533.070313 289.511719 533.007813 282.582031 C 526.46875 282.621094 519.929688 282.609375 513.398438 282.582031 C 513.070313 290.230469 514.21875 298.050781 512.71875 305.589844 C 512.109375 305.910156 510.890625 306.570313 510.277344 306.902344 C 508.769531 306.230469 506.628906 305.390625 506.878906 303.351563 C 506.820313 288.339844 506.871094 273.320313 506.847656 258.3125 Z M 625.570313 254.921875 C 632.277344 253.519531 640.417969 254.902344 644.5 260.941406 C 648.5 266.589844 647.269531 273.8125 647.460938 280.300781 C 647.238281 286.601563 648.507813 293.480469 645.058594 299.171875 C 639.28125 308.722656 623.75 309.121094 616.828125 300.710938 C 612.28125 294.851563 613.609375 287.101563 613.429688 280.222656 C 613.660156 274.582031 612.609375 268.589844 615.078125 263.300781 C 616.878906 258.980469 621.058594 255.929688 625.570313 254.921875 Z M 626.667969 260.851563 C 622.519531 261.839844 619.699219 266.089844 619.828125 270.261719 C 619.71875 276.621094 619.808594 282.980469 619.769531 289.339844 C 619.699219 291.929688 620.160156 294.652344 621.738281 296.78125 C 626.558594 303.191406 638.859375 301.589844 640.738281 293.382813 C 641.4375 287.402344 640.859375 281.339844 641.070313 275.332031 C 640.96875 271.441406 641.621094 266.921875 638.800781 263.761719 C 635.878906 260.230469 630.828125 260.0625 626.667969 260.851563 Z M 711.71875 254.929688 C 716.710938 254.019531 722.230469 254.261719 726.628906 257.0625 C 731.097656 259.851563 733.621094 265.152344 733.589844 270.351563 C 733.628906 277.011719 733.628906 283.679688 733.609375 290.339844 C 733.71875 296.8125 729.757813 303.511719 723.429688 305.5 C 716.257813 308.019531 707.007813 306.492188 702.488281 299.972656 C 699.300781 295.359375 699.578125 289.582031 699.667969 284.261719 C 699.738281 279.179688 699.519531 274.101563 699.769531 269.03125 C 700.058594 262.371094 705.089844 256.171875 711.71875 254.929688 Z M 712.589844 260.921875 C 708.179688 262.25 705.628906 266.882813 705.9375 271.339844 C 706.140625 278.582031 705.46875 285.878906 706.328125 293.082031 C 707.929688 302.289063 722.390625 303.332031 726.269531 295.289063 C 728.367188 290.230469 727.097656 284.609375 727.449219 279.300781 C 727.179688 274.082031 728.628906 267.972656 724.859375 263.660156 C 721.839844 260.179688 716.769531 260.019531 712.589844 260.921875 Z M 757.320313 256.199219 C 761.789063 254.179688 766.949219 254.019531 771.699219 255.089844 C 774.890625 255.941406 778.558594 257.03125 779.890625 260.429688 C 778.621094 262.28125 776.5 263.441406 774.300781 262.429688 C 769.789063 260.5 764.25 259.390625 759.777344 261.941406 C 756.410156 263.710938 754.757813 267.621094 754.789063 271.289063 C 754.71875 277.300781 754.75 283.3125 754.757813 289.320313 C 754.808594 292.960938 756.148438 297.089844 759.550781 298.929688 C 764.140625 301.820313 769.800781 300.519531 774.75 299.410156 C 774.890625 294.289063 774.820313 289.160156 774.828125 284.039063 C 771.539063 284.070313 768.210938 284.320313 764.988281 283.5625 C 764.609375 281.660156 764.1875 279.339844 766.230469 278.210938 C 770.328125 277.800781 774.46875 278.160156 778.589844 277.980469 C 782.140625 279.691406 781.277344 284.050781 781.371094 287.28125 C 781.039063 292.679688 782.097656 298.242188 780.480469 303.492188 C 773.359375 306.519531 764.898438 308.109375 757.589844 304.871094 C 751.949219 302.472656 748.460938 296.351563 748.519531 290.332031 C 748.480469 283.671875 748.4375 277 748.527344 270.339844 C 748.480469 264.480469 751.960938 258.679688 757.320313 256.199219 Z M 757.320313 256.199219 "/>
<path style=" stroke:none;fill-rule:evenodd;fill:rgb(10.984802%,16.868591%,35.693359%);fill-opacity:1;" d="M 549.757813 177.132813 C 554.46875 176.441406 559.398438 177.628906 563.4375 180.089844 C 565.21875 180.902344 565.757813 183.890625 563.847656 184.859375 C 560.828125 186.0625 558.078125 183.742188 555.230469 183.171875 C 551.128906 182.359375 546.328125 183.371094 543.710938 186.839844 C 540.820313 190.320313 541.667969 195.128906 541.539063 199.300781 C 541.730469 204.699219 541.128906 210.152344 541.910156 215.511719 C 543.398438 221.941406 551.269531 224.589844 556.980469 222.222656 C 559.179688 221.390625 561.429688 219.742188 563.890625 220.722656 C 565.460938 221.992188 565.5 224.660156 563.6875 225.761719 C 555.847656 231.121094 543.21875 230.039063 537.839844 221.660156 C 534.121094 215.910156 535.1875 208.730469 535.03125 202.242188 C 535.109375 196.128906 534.410156 189.382813 537.980469 184.039063 C 540.460938 179.941406 545.167969 177.800781 549.757813 177.132813 Z M 420.960938 255.980469 C 425.539063 254.300781 430.488281 255.28125 435.25 255.03125 C 439.410156 255.222656 443.75 254.359375 447.75 255.871094 C 447.890625 257.472656 447.847656 259.082031 447.621094 260.671875 C 440.667969 261.550781 433.640625 260.910156 426.667969 261.070313 C 426.558594 266.242188 426.539063 271.410156 426.640625 276.582031 C 432.507813 276.5625 438.398438 276.460938 444.277344 276.589844 C 446.097656 276.3125 446.800781 278.242188 447.777344 279.359375 C 446.847656 280.640625 446.238281 283.019531 444.167969 282.652344 C 438.308594 282.742188 432.449219 282.671875 426.597656 282.652344 C 426.570313 288.390625 426.589844 294.121094 426.589844 299.859375 C 433.1875 299.839844 439.789063 299.632813 446.378906 299.929688 C 449.417969 300.351563 449.320313 305.550781 446.160156 305.8125 C 438.527344 305.949219 430.878906 306 423.257813 305.769531 C 420.570313 305.539063 419.96875 302.460938 420.070313 300.261719 C 420.070313 289.929688 420.570313 279.601563 420.070313 269.269531 C 420.179688 264.832031 419.578125 260.289063 420.960938 255.980469 Z M 420.960938 255.980469 "/>
<path style=" stroke:none;fill-rule:evenodd;fill:rgb(10.594177%,17.259216%,35.693359%);fill-opacity:1;" d="M 645.597656 179.941406 C 657.238281 176.039063 670.078125 176.050781 681.75 179.882813 C 681.898438 195.332031 681.878906 210.78125 681.757813 226.230469 C 681.488281 229.8125 675.6875 229.882813 675.121094 226.351563 C 674.6875 212.5625 675.328125 198.730469 674.800781 184.929688 C 667.488281 183.378906 659.9375 183.460938 652.628906 184.902344 C 652.019531 198.679688 652.699219 212.5 652.269531 226.28125 C 651.699219 229.8125 647.347656 229.5 645.597656 227.082031 C 645.539063 211.371094 645.539063 195.660156 645.597656 179.941406 Z M 645.597656 179.941406 "/>
<path style=" stroke:none;fill-rule:evenodd;fill:rgb(10.594177%,17.259216%,36.083984%);fill-opacity:1;" d="M 702.800781 180.011719 C 709.390625 175.640625 718.589844 176.050781 724.980469 180.609375 C 726.347656 181.53125 725.6875 183.339844 725.558594 184.671875 C 721.199219 186.5 717.539063 182.5 713.210938 182.910156 C 707.9375 182.710938 702.640625 186.839844 702.519531 192.300781 C 702.378906 199.300781 702.429688 206.300781 702.480469 213.300781 C 702.410156 218.871094 707.769531 223.269531 713.160156 223 C 716.769531 223.222656 719.929688 221.25 723.1875 220.019531 C 725.640625 220.640625 727.070313 224.070313 724.710938 225.671875 C 718.148438 230.191406 708.558594 230.179688 702.121094 225.429688 C 697.789063 222.140625 695.960938 216.589844 695.96875 211.3125 C 695.960938 205.289063 695.890625 199.269531 696.007813 193.25 C 696.148438 188.121094 698.460938 182.921875 702.800781 180.011719 Z M 702.800781 180.011719 "/>
<path style=" stroke:none;fill-rule:evenodd;fill:rgb(10.205078%,16.479492%,34.910583%);fill-opacity:1;" d="M 852.609375 179.820313 C 864.308594 176.140625 877.058594 176.070313 888.730469 179.910156 C 888.71875 195.609375 888.941406 211.332031 888.628906 227.03125 C 887.191406 229.851563 883.019531 229.390625 881.910156 226.539063 C 882.050781 212.710938 881.980469 198.871094 881.921875 185.039063 C 874.558594 183.339844 866.878906 183.410156 859.5 184.960938 C 859.199219 198.472656 859.550781 211.992188 859.328125 225.5 C 859.390625 229.3125 854.359375 230.03125 852.578125 227.0625 C 852.570313 211.3125 852.519531 195.5625 852.609375 179.820313 Z M 852.609375 179.820313 "/>
<path style=" stroke:none;fill-rule:evenodd;fill:rgb(10.594177%,16.868591%,36.083984%);fill-opacity:1;" d="M 579.789063 179.339844 C 580.390625 175.679688 586.449219 176.519531 585.929688 180.269531 C 585.910156 195.832031 586.089844 211.410156 585.839844 226.960938 C 584.867188 229.730469 581.417969 229.230469 579.699219 227.492188 C 579.777344 211.441406 579.589844 195.378906 579.789063 179.339844 Z M 811.828125 182.050781 C 815.871094 179.902344 820.667969 177.472656 825.277344 179.371094 C 831.730469 181.3125 838.917969 185.8125 839.359375 193.242188 C 839.667969 204.378906 839.300781 215.539063 839.527344 226.679688 C 838.378906 228.742188 836.269531 229.230469 834.097656 228.699219 C 833.757813 228.261719 833.070313 227.390625 832.71875 226.949219 C 832.667969 221.132813 832.71875 215.3125 832.640625 209.5 C 825.269531 209.789063 817.878906 209.519531 810.507813 209.832031 C 810.738281 215.3125 810.898438 220.789063 810.78125 226.269531 C 810.667969 229.089844 806.25 229.921875 804.769531 227.710938 C 803.71875 226.109375 804.070313 224.121094 803.988281 222.320313 C 804.070313 212.972656 803.871094 203.621094 804.070313 194.28125 C 804.070313 189.089844 807.371094 184.460938 811.828125 182.050781 Z M 810.9375 193.121094 C 810.71875 198.132813 810.878906 203.160156 810.871094 208.191406 C 814.1875 206.300781 817 202.652344 821.1875 203.0625 C 825.058594 203.0625 828.929688 203.089844 832.808594 203.089844 C 832.398438 198.3125 834.238281 192.140625 829.730469 188.789063 C 826.710938 186.839844 822.890625 184.832031 819.25 186.171875 C 815.757813 187.28125 811.820313 189.199219 810.9375 193.121094 Z M 373.757813 260.921875 C 372.550781 258.980469 372.289063 255.589844 375.238281 255.230469 C 384.890625 254.761719 394.609375 255.140625 404.289063 255.050781 C 405.847656 254.832031 406.777344 256.351563 407.980469 257.050781 C 407.550781 258.332031 407.097656 259.609375 406.648438 260.882813 C 402.300781 261.191406 397.929688 261.152344 393.570313 260.992188 C 393.269531 274.761719 393.539063 288.539063 393.4375 302.320313 C 393.328125 303.449219 393.089844 304.550781 392.738281 305.652344 C 392.128906 305.941406 390.910156 306.511719 390.300781 306.800781 C 389.640625 306.53125 388.328125 306 387.679688 305.730469 C 386.460938 302.039063 387.089844 298.121094 386.960938 294.320313 C 386.828125 283.21875 387.210938 272.109375 386.78125 261.03125 C 382.429688 261.121094 378.089844 261.210938 373.757813 260.921875 Z M 373.757813 260.921875 "/>
<path style=" stroke:none;fill-rule:evenodd;fill:rgb(10.594177%,16.479492%,35.693359%);fill-opacity:1;" d="M 904.648438 178.742188 C 905.011719 178.550781 905.738281 178.171875 906.109375 177.980469 C 914.191406 177.960938 923.621094 176.382813 930.261719 182.179688 C 935.390625 186.242188 936.378906 193.210938 936.011719 199.351563 C 935.71875 207.652344 937.730469 217.621094 931 224.019531 C 925.011719 230.082031 915.949219 228.851563 908.230469 228.980469 C 906.03125 229.28125 903.148438 228 903.421875 225.410156 C 903.269531 211.390625 903.449219 197.351563 903.328125 183.320313 C 903.390625 181.742188 903.148438 179.769531 904.648438 178.742188 Z M 909.789063 184.011719 C 909.761719 196.960938 909.871094 209.910156 909.71875 222.851563 C 915.480469 222.871094 922.539063 223.722656 926.761719 218.871094 C 930.558594 214.628906 929.519531 208.53125 929.648438 203.300781 C 929.578125 197.882813 930.53125 191.449219 926.179688 187.3125 C 921.851563 183.019531 915.289063 184.121094 909.789063 184.011719 Z M 909.789063 184.011719 "/>
<path style=" stroke:none;fill-rule:evenodd;fill:rgb(99.609375%,100%,99.21875%);fill-opacity:1;" d="M 386.410156 183.441406 C 390.019531 182.429688 394.148438 183.140625 397.167969 185.359375 C 401.667969 189.410156 400.328125 195.941406 400.519531 201.320313 C 400.269531 206.460938 401.160156 211.75 399.847656 216.789063 C 397.070313 225.871094 381.148438 225.289063 379.480469 215.75 C 378.53125 208.640625 379.210938 201.410156 379.039063 194.25 C 378.808594 189.53125 381.410156 184.339844 386.410156 183.441406 Z M 386.410156 183.441406 "/>
<path style=" stroke:none;fill-rule:evenodd;fill:rgb(100%,99.609375%,100%);fill-opacity:1;" d="M 909.789063 184.011719 C 915.289063 184.121094 921.851563 183.019531 926.179688 187.3125 C 930.53125 191.449219 929.578125 197.882813 929.648438 203.300781 C 929.519531 208.53125 930.558594 214.628906 926.761719 218.871094 C 922.539063 223.722656 915.480469 222.871094 909.71875 222.851563 C 909.871094 209.910156 909.761719 196.960938 909.789063 184.011719 Z M 909.789063 184.011719 "/>
<path style=" stroke:none;fill-rule:evenodd;fill:rgb(10.205078%,16.868591%,36.863708%);fill-opacity:1;" d="M 558.890625 257.121094 C 570.558594 253.589844 583.089844 253.730469 594.808594 257.03125 C 595.558594 272.128906 594.648438 287.28125 595.277344 302.390625 C 595.621094 304.980469 593.4375 306.539063 591.148438 306.890625 C 590.578125 306.5 589.429688 305.730469 588.847656 305.339844 C 588.1875 301.359375 588.539063 297.320313 588.480469 293.320313 C 588.519531 283.179688 588.359375 273.050781 588.558594 262.921875 C 581.179688 260.3125 573.070313 260.800781 565.570313 262.609375 C 565.507813 276.171875 565.640625 289.742188 565.519531 303.3125 C 565.597656 306.972656 559.960938 307.941406 558.878906 304.351563 C 558.660156 288.621094 558.667969 272.859375 558.890625 257.121094 Z M 558.890625 257.121094 "/>
<path style=" stroke:none;fill-rule:evenodd;fill:rgb(10.594177%,16.868591%,37.255859%);fill-opacity:1;" d="M 663.769531 256.109375 C 665.359375 253.742188 670.089844 253.921875 669.9375 257.351563 C 670 271.152344 670.128906 284.972656 669.859375 298.769531 C 670.109375 299.039063 670.597656 299.589844 670.847656 299.871094 C 671.1875 300.222656 671.871094 300.921875 672.210938 301.269531 C 678.097656 301.820313 684.058594 300.761719 689.898438 301.941406 C 689.46875 302.722656 689.039063 303.5 688.621094 304.289063 C 689.078125 304.679688 690 305.480469 690.46875 305.882813 C 682.738281 305.882813 675.019531 305.949219 667.300781 305.871094 C 665.429688 306.039063 663.597656 304.140625 663.800781 302.289063 C 663.679688 286.902344 663.769531 271.5 663.769531 256.109375 Z M 663.769531 256.109375 "/>
<path style=" stroke:none;fill-rule:evenodd;fill:rgb(100%,100%,99.21875%);fill-opacity:1;" d="M 626.667969 260.851563 C 630.828125 260.0625 635.878906 260.230469 638.800781 263.761719 C 641.621094 266.921875 640.96875 271.441406 641.070313 275.332031 C 640.859375 281.339844 641.4375 287.402344 640.738281 293.382813 C 638.859375 301.589844 626.558594 303.191406 621.738281 296.78125 C 620.160156 294.652344 619.699219 291.929688 619.769531 289.339844 C 619.808594 282.980469 619.71875 276.621094 619.828125 270.261719 C 619.699219 266.089844 622.519531 261.839844 626.667969 260.851563 Z M 626.667969 260.851563 "/>
<path style=" stroke:none;fill-rule:evenodd;fill:rgb(10.984802%,16.088867%,29.80957%);fill-opacity:1;" d="M 670.847656 299.871094 C 677.371094 299.839844 683.898438 299.660156 690.410156 299.949219 C 692.808594 301.121094 692.277344 304.410156 690.46875 305.882813 C 690 305.480469 689.078125 304.679688 688.621094 304.289063 C 689.039063 303.5 689.46875 302.722656 689.898438 301.941406 C 684.058594 300.761719 678.097656 301.820313 672.210938 301.269531 C 671.871094 300.921875 671.1875 300.222656 670.847656 299.871094 Z M 670.847656 299.871094 "/>
</g>
</svg>
