<?xml version="1.0" encoding="utf-8"?>
<svg viewBox="0 0 288.523 317.2" xmlns="http://www.w3.org/2000/svg">
  <defs>
    <clipPath id="clip1">
      <path d="M 0 0 L 286 0 L 286 317.199219 L 0 317.199219 Z M 0 0 "/>
    </clipPath>
  </defs>
  <g id="surface1">
    <path style=" stroke:none;fill-rule:evenodd;fill:rgb(94.921875%,77.34375%,48.631287%);fill-opacity:1;" d="M 66.308594 11.492188 C 85.890625 6.191406 106 3.011719 126.167969 1.132813 C 127.980469 0.859375 129.808594 0.992188 131.578125 1.449219 C 124.550781 2.890625 117.347656 3.121094 110.257813 4.070313 C 101.140625 5.402344 92.050781 6.878906 83.039063 8.839844 C 76.078125 10.199219 68.917969 11.351563 62.5 14.550781 C 58.929688 16.789063 58.550781 21.480469 58.628906 25.300781 C 58.769531 61.351563 58.398438 97.410156 58.828125 133.472656 C 57.257813 136.859375 57.867188 140.660156 57.800781 144.269531 C 57.949219 155.28125 57.488281 166.3125 58.097656 177.3125 C 57.839844 187.871094 57.417969 198.480469 58.117188 209.039063 L 57.539063 209.0625 C 57.710938 199.140625 58.070313 189.191406 57.289063 179.289063 C 58.167969 161.980469 57.539063 144.601563 57.558594 127.269531 C 57.507813 95.949219 57.550781 64.628906 57.539063 33.3125 C 57.597656 28.460938 57.238281 23.570313 57.878906 18.75 C 58.589844 14.679688 62.550781 12.28125 66.308594 11.492188 Z M 66.308594 11.492188 "/>
    <g clip-path="url(#clip1)" clip-rule="nonzero">
      <path style=" stroke:none;fill-rule:evenodd;fill:rgb(99.21875%,68.554688%,9.008789%);fill-opacity:1;" d="M 131.578125 1.449219 C 146.449219 -0.0078125 161.417969 1.660156 176.210938 3.289063 C 188.308594 5.171875 200.429688 7.101563 212.328125 10.03125 L 213.019531 10.539063 C 218.488281 11.121094 224.308594 12.429688 227.757813 17.128906 C 227.609375 72.851563 227.6875 128.582031 227.679688 184.3125 C 227.769531 192.742188 227.480469 201.171875 228 209.601563 C 227.769531 151.519531 227.960938 93.402344 227.898438 35.3125 C 227.929688 29.539063 227.597656 23.722656 228.667969 18.019531 C 228.308594 81.742188 228.710938 145.480469 228.46875 209.199219 C 226.9375 210.472656 225.410156 212.660156 223.160156 211.492188 C 213.917969 205.652344 205.027344 199.261719 195.769531 193.441406 C 194.621094 192.710938 193.660156 191.75 192.699219 190.800781 C 193 154.300781 192.75 117.78125 192.839844 81.269531 C 192.730469 68.160156 193.058594 55.03125 192.710938 41.921875 C 179.640625 39.652344 166.589844 36.621094 153.257813 36.78125 C 142.25 36.769531 131.179688 36.25 120.230469 37.652344 C 111.257813 38.550781 102.410156 40.351563 93.539063 41.972656 C 93.4375 64.832031 93.480469 87.691406 93.539063 110.539063 C 86.300781 115.710938 78.820313 120.550781 71.449219 125.53125 C 67.257813 128.210938 63.390625 131.429688 58.828125 133.472656 C 58.398438 97.410156 58.769531 61.351563 58.628906 25.300781 C 58.550781 21.480469 58.929688 16.789063 62.5 14.550781 C 68.917969 11.351563 76.078125 10.199219 83.039063 8.839844 C 92.050781 6.878906 101.140625 5.402344 110.257813 4.070313 C 117.347656 3.121094 124.550781 2.890625 131.578125 1.449219 Z M 26.449219 43.601563 C 29.578125 42.609375 32.359375 40.472656 35.78125 40.550781 C 35.597656 89.480469 35.789063 138.410156 35.679688 187.339844 C 35.667969 190.671875 35.667969 194 36.019531 197.3125 C 37.078125 208.132813 41.007813 218.519531 46.640625 227.789063 C 56.589844 242.519531 71 253.8125 86.871094 261.601563 C 100.347656 268.199219 114.6875 272.972656 129.308594 276.332031 C 134.53125 277.421875 139.730469 279.570313 145.148438 278.839844 C 152.238281 277.640625 159.1875 275.820313 166.167969 274.132813 C 188.917969 267.53125 211.960938 258.171875 228.71875 240.851563 C 241.679688 228.539063 249.917969 211.160156 250.640625 193.242188 C 250.597656 142.3125 250.679688 91.371094 250.597656 40.429688 C 254.75 40.941406 258.417969 43.03125 262.300781 44.421875 C 269.359375 47.5 276.828125 49.902344 283.1875 54.351563 C 285.75 56.082031 285.769531 59.460938 285.769531 62.222656 C 285.679688 107.242188 285.871094 152.25 285.679688 197.269531 C 284.507813 219.742188 275.199219 241.582031 260.257813 258.371094 C 256.1875 262.230469 253.050781 267.011719 248.4375 270.28125 C 227.5 288.882813 201.730469 301.070313 175.269531 309.601563 C 166.007813 312.339844 156.699219 314.949219 147.210938 316.730469 C 144.179688 317.171875 141.058594 317.199219 138.070313 316.519531 C 103.480469 309.28125 69.449219 296.019531 41.738281 273.691406 C 26.210938 260.800781 13.238281 244.421875 6.230469 225.371094 C 2.519531 214.421875 0.398438 202.890625 0.628906 191.320313 C 0.539063 147.640625 0.597656 103.972656 0.597656 60.300781 C 0.0195313 55.910156 4.070313 53.269531 7.480469 51.621094 C 13.738281 48.820313 20.039063 46.0625 26.449219 43.601563 Z M 26.449219 43.601563 "/>
    </g>
    <path style=" stroke:none;fill-rule:evenodd;fill:rgb(72.459412%,12.547302%,14.501953%);fill-opacity:1;" d="M 164.558594 62.601563 C 167.929688 60.019531 173.589844 59.382813 176.410156 63.101563 C 179.097656 66.890625 179.667969 71.71875 179.667969 76.25 C 179.628906 95.632813 179.710938 115 179.617188 134.382813 C 141.257813 159.742188 103.070313 185.359375 64.738281 210.742188 C 62.609375 212.679688 58.699219 212.152344 58.117188 209.039063 C 57.417969 198.480469 57.839844 187.871094 58.097656 177.3125 C 57.488281 166.3125 57.949219 155.28125 57.800781 144.269531 C 57.867188 140.660156 57.257813 136.859375 58.828125 133.472656 C 63.390625 131.429688 67.257813 128.210938 71.449219 125.53125 C 78.820313 120.550781 86.300781 115.710938 93.539063 110.539063 C 117.160156 94.492188 140.898438 78.601563 164.558594 62.601563 Z M 164.558594 62.601563 "/>
  </g>
</svg>