<?xml version="1.0" encoding="UTF-8" standalone="no"?>
<!-- Created with Inkscape (http://www.inkscape.org/) -->

<svg
   xmlns:dc="http://purl.org/dc/elements/1.1/"
   xmlns:cc="http://creativecommons.org/ns#"
   xmlns:rdf="http://www.w3.org/1999/02/22-rdf-syntax-ns#"
   xmlns:svg="http://www.w3.org/2000/svg"
   xmlns="http://www.w3.org/2000/svg"
   version="1.1"
   width="892.91339"
   height="216.49606"
   id="svg31198"
   xml:space="preserve"><metadata
     id="metadata31204"><rdf:RDF><cc:Work
         rdf:about=""><dc:format>image/svg+xml</dc:format><dc:type
           rdf:resource="http://purl.org/dc/dcmitype/StillImage" /><dc:title></dc:title></cc:Work></rdf:RDF></metadata><defs
     id="defs31202"><clipPath
       id="clipPath31592"><path
         d="m 0,0 566.294,0 0,581.101 L 0,581.101 0,0 z"
         id="path31594" /></clipPath></defs><g
     transform="matrix(1.25,0,0,-1.25,45.66433,603.1028)"
     id="g31206"><g
       id="g31588"><g
         clip-path="url(#clipPath31592)"
         id="g31590"><text
           transform="matrix(0.8318418,0,0,-1,-19.31,2.6634)"
           id="text31596"><tspan
             x="0 6.1960597 12.392119"
             y="0"
             id="tspan31598"
             style="font-size:8.58180046px;font-variant:normal;font-weight:normal;font-stretch:normal;writing-mode:lr-tb;fill:#ffffff;fill-opacity:1;fill-rule:nonzero;stroke:none;font-family:'FUFXDD+ArialMT';-inkscape-font-specification:ArialMT">www</tspan></text>
</g></g><g
       transform="matrix(4.1668114,0,0,4.1668114,-1674.0962,258.1907)"
       id="g52954"><g
         id="g52946"><g
           transform="translate(563.755,28.5531)"
           id="g31658"
           style="fill:#036a9d;fill-opacity:1"><path
             d="m 0,0 c -0.155,2.891 -0.188,3.699 -0.188,7.212 l 0,2.33 c 0.033,2.081 0.063,4.009 -0.839,5.315 -1.212,1.772 -3.356,1.772 -3.855,1.772 -2.548,0 -4.258,-1.149 -5.501,-2.02 -0.435,0.715 -1.213,2.02 -3.698,2.02 -2.053,0 -3.388,-0.932 -4.819,-1.928 l 0,1.742 -0.281,0.28 c -2.423,-0.467 -3.108,-0.591 -5.283,-0.901 l -0.188,-0.218 c 0.251,-2.486 0.436,-4.197 0.436,-10.352 0,-1.772 -0.03,-3.574 -0.03,-5.346 2.145,-0.125 2.827,-0.093 5.408,-0.093 -0.033,4.973 -0.062,6.403 -0.092,11.81 0.651,0.468 1.365,0.872 2.144,0.872 1.927,0 1.991,-2.206 1.991,-4.88 0,-4.507 -0.033,-5.191 -0.096,-7.709 l 0.188,-0.218 c 2.361,0.125 3.014,0.125 5.16,0.125 0,3.139 -0.033,4.01 -0.062,7.772 l 0,1.149 -0.031,3.14 c 0.527,0.342 1.21,0.776 2.143,0.776 1.772,0 2.052,-1.678 2.052,-4.351 0,-0.59 -0.03,-1.18 -0.03,-1.772 -0.032,-1.058 -0.063,-5.69 -0.095,-6.621 2.519,-0.093 3.202,-0.093 5.378,-0.093 L 0,0 z m -32.601,8.08 c 0,-2.548 -0.34,-5.376 -2.923,-5.376 -0.806,0 -1.365,0.371 -1.739,0.715 -0.528,0.528 -1.12,1.584 -1.12,4.6 0,0.902 0,2.891 0.622,3.979 0.466,0.839 1.275,1.4 2.27,1.4 0.87,0 1.584,-0.468 1.99,-0.965 0.744,-0.902 0.9,-2.673 0.9,-4.353 m 5.377,-0.03 c 0,1.212 0,6.248 -4.35,7.957 -1.367,0.53 -2.985,0.592 -3.791,0.592 -5.411,0 -8.456,-2.892 -8.456,-8.611 0,-1.989 0.31,-4.01 1.461,-5.689 0.807,-1.211 2.33,-2.889 6.776,-2.889 6.589,0 8.36,3.977 8.36,8.64 M -45.771,4.257 C -46.61,3.76 -47.42,3.264 -49.004,3.264 c -3.512,0 -4.228,2.921 -4.228,4.786 0,2.269 0.995,4.88 4.01,4.88 1.368,0 2.113,-0.497 3.047,-1.119 l 0.311,0.093 c 0.123,1.647 0.155,2.084 0.403,3.73 -1.523,0.622 -2.702,0.995 -4.508,0.995 -7.305,0 -8.732,-5.533 -8.732,-8.704 0,-3.573 1.863,-8.422 8.857,-8.422 1.646,0 2.704,0.31 4.01,0.683 l 0.311,3.918 -0.248,0.153 z m -25.234,5.689 c 0.093,0.964 0.31,2.27 1.491,3.015 0.373,0.248 0.81,0.342 1.245,0.342 1.025,0 1.647,-0.528 1.988,-1.087 0.436,-0.685 0.466,-1.43 0.466,-2.146 l -5.19,-0.124 z m 9.418,-5.565 c -1.181,-0.621 -2.58,-1.335 -4.846,-1.335 -1.868,0 -3.141,0.59 -3.887,1.709 -0.466,0.653 -0.56,1.276 -0.685,1.896 l 10.042,0.186 0.186,0.218 c -0.031,1.525 -0.064,3.078 -0.498,4.632 -1.089,3.669 -3.482,4.412 -4.54,4.664 -0.777,0.217 -1.492,0.278 -2.205,0.278 -4.882,0 -8.114,-3.202 -8.114,-8.579 0,-1.461 0.25,-2.984 0.747,-4.072 1.803,-4.197 6.028,-4.568 8.269,-4.568 2.578,0 3.699,0.466 5.345,1.117 l 0.186,0.249 0.217,3.513 -0.217,0.092 z M -78.994,0 c -0.155,3.575 -0.311,6.837 -0.311,16.661 0,2.953 0.03,4.351 0.156,7.709 l -0.219,0.218 -5.315,-0.841 c 0.188,-3.978 0.218,-5.004 0.28,-10.04 0.031,-1.833 0.031,-3.666 0.031,-5.502 0,-3.357 -0.063,-5.221 -0.186,-8.299 l 0.186,-0.218 c 2.083,0.093 2.923,0.125 5.189,0.093 L -78.994,0 z m -18.55,9.946 c 0.092,0.964 0.31,2.27 1.491,3.015 0.373,0.248 0.81,0.342 1.245,0.342 1.027,0 1.647,-0.528 1.988,-1.087 0.435,-0.685 0.468,-1.43 0.468,-2.146 l -5.192,-0.124 z m 9.42,-5.565 c -1.183,-0.621 -2.582,-1.335 -4.85,-1.335 -1.866,0 -3.14,0.59 -3.887,1.709 -0.466,0.653 -0.558,1.276 -0.683,1.896 l 10.041,0.186 0.186,0.218 c -0.03,1.525 -0.063,3.078 -0.497,4.632 -1.089,3.669 -3.482,4.412 -4.538,4.664 -0.776,0.217 -1.494,0.278 -2.208,0.278 -4.881,0 -8.114,-3.202 -8.114,-8.579 0,-1.461 0.25,-2.984 0.746,-4.072 1.805,-4.197 6.031,-4.568 8.272,-4.568 2.577,0 3.697,0.466 5.344,1.117 l 0.188,0.249 0.215,3.513 -0.215,0.092 z M -103.6,3.357 c -0.526,-0.157 -0.899,-0.282 -1.428,-0.282 -1.587,0 -1.71,0.997 -1.772,1.462 -0.093,0.809 -0.093,2.518 -0.063,3.762 l 0.063,4.382 2.797,-0.124 0.499,3.513 -3.28,0.186 0.093,5.222 -0.216,0.187 c -2.114,-0.62 -2.674,-0.777 -4.881,-1.338 l -0.125,-0.216 0.032,-3.917 -1.709,0.062 -0.467,-3.449 2.146,-0.126 -0.093,-4.941 c -0.032,-0.777 -0.062,-1.555 -0.062,-2.364 0,-2.858 0.062,-5.936 4.923,-5.936 1.213,0 2.178,0.187 3.265,0.373 l 0.218,0.218 0.311,3.201 -0.251,0.125 z"
             id="path31660"
             style="fill:#036a9d;fill-opacity:1;fill-rule:nonzero;stroke:none" /></g><g
           transform="translate(562.2727,16.9983)"
           id="g31662"
           style="fill:#036a9d;fill-opacity:1"><path
             d="m 0,0 0,-2.308 c -0.153,-0.138 -0.649,-0.607 -1.505,-0.607 -1.313,0 -1.313,1.187 -1.313,1.257 0,1.229 1.299,1.423 2.693,1.63 L 0,0 z m 1.422,0.332 c 0,0.579 0,1.339 -0.096,1.726 -0.289,1.077 -1.284,1.423 -2.307,1.423 -0.816,0 -1.616,-0.179 -2.391,-0.456 L -3.494,1.933 c 0.69,0.18 1.313,0.457 2.211,0.457 0.69,0 1.008,-0.264 1.143,-0.512 0.126,-0.22 0.126,-0.483 0.126,-0.856 L -0.248,0.995 c -2.489,-0.29 -4.035,-0.885 -4.035,-2.736 0,-1.368 0.966,-2.308 2.35,-2.308 1.05,0 1.671,0.499 1.933,0.705 L -0.014,-3.84 c 0.691,-0.056 0.801,-0.042 1.451,-0.028 0,0.966 -0.015,1.119 -0.015,2.832 l 0,1.368 z M -7.35,5.415 c -0.016,0.608 -0.016,0.747 0,1.312 -0.773,0.015 -0.898,0 -1.618,-0.056 -0.081,-0.359 -0.067,-0.579 -0.067,-0.827 0,-0.18 0,-0.374 -0.014,-0.554 0.759,-0.013 0.912,0 1.618,0.029 l 0.081,0.096 z m -0.027,-9.2 c -0.054,0.939 -0.084,1.284 -0.084,3.853 0,1.783 0.042,2.529 0.084,3.247 L -7.515,3.398 C -8.206,3.246 -8.413,3.219 -9.008,3.121 c 0.03,-0.911 0.069,-1.409 0.069,-4.046 0,-1.534 -0.039,-2.17 -0.081,-2.901 0.743,-0.056 0.855,-0.056 1.573,-0.042 l 0.07,0.083 z m -9.779,0.954 c -0.028,2.112 -0.041,2.582 -0.028,4.653 0.317,0.208 0.816,0.526 1.494,0.526 0.483,0 0.98,-0.18 1.354,-0.566 C -13.938,1.381 -13.7,0.898 -13.7,0 c 0,-0.871 -0.279,-1.616 -0.691,-2.06 -0.774,-0.827 -1.948,-0.8 -2.378,-0.786 l -0.387,0.015 z m -0.041,-1.079 c 1.189,-0.028 2.984,-0.055 4.146,1.354 0.785,0.94 0.856,2.017 0.856,2.57 0,2.168 -1.34,3.467 -3.069,3.467 -1.034,0 -1.67,-0.442 -1.933,-0.621 l 0.055,4.186 -1.547,-0.194 c 0.07,-1.465 0.07,-2.473 0.083,-4.904 l 0,-2.059 c 0,-1.92 -0.027,-2.846 -0.055,-3.702 0.579,-0.083 0.704,-0.083 1.174,-0.097 l 0.29,0 z m -4.973,9.325 c -0.014,0.608 -0.014,0.747 0,1.312 -0.774,0.015 -0.9,0 -1.615,-0.056 -0.084,-0.359 -0.071,-0.579 -0.071,-0.827 0,-0.18 0,-0.374 -0.013,-0.554 0.76,-0.013 0.91,0 1.615,0.029 l 0.084,0.096 z m -0.028,-9.2 c -0.056,0.939 -0.082,1.284 -0.082,3.853 0,1.783 0.041,2.529 0.082,3.247 l -0.139,0.083 c -0.691,-0.152 -0.897,-0.179 -1.49,-0.277 0.026,-0.911 0.068,-1.409 0.068,-4.046 0,-1.534 -0.042,-2.17 -0.083,-2.901 0.745,-0.056 0.856,-0.056 1.575,-0.042 l 0.069,0.083 z m -15.708,6.823 c 0.081,-0.636 0.15,-1.509 0.15,-4.11 0,-1.425 -0.028,-2.215 -0.056,-2.768 0.746,-0.042 0.802,-0.042 1.521,-0.042 0.028,0.869 -0.014,1.547 -0.014,3.081 l 0,2.362 c 0.65,0.511 1.244,0.705 1.74,0.705 0.816,0 1.051,-0.554 1.161,-0.995 0.097,-0.373 0.097,-0.719 0.097,-1.411 0,-0.869 -0.015,-2.457 -0.069,-3.7 0.731,-0.056 0.814,-0.042 1.533,-0.042 0,1.063 -0.014,1.547 -0.014,2.957 l 0,0.785 c 0,0.402 -0.014,1.397 -0.056,1.687 0.762,0.607 1.424,0.705 1.771,0.705 0.771,0 1.089,-0.484 1.214,-1.079 0.069,-0.317 0.069,-0.621 0.069,-1.49 0,-1.121 -0.014,-2.378 -0.041,-3.523 0.72,-0.056 0.827,-0.042 1.492,-0.042 0.013,1.339 0,1.727 0,3.301 l 0,1.175 c 0,1.188 -0.015,1.714 -0.665,2.335 -0.386,0.386 -0.966,0.552 -1.476,0.552 -1.299,0 -2.322,-0.745 -2.654,-0.995 -0.192,0.318 -0.593,0.995 -1.78,0.995 -1.078,0 -1.852,-0.538 -2.335,-0.884 l 0.041,0.718 c -0.485,0 -0.857,-0.082 -1.563,-0.194 L -37.906,3.038 z M -42.826,0 l 0,-2.308 c -0.153,-0.138 -0.649,-0.607 -1.508,-0.607 -1.311,0 -1.311,1.187 -1.311,1.257 0,1.229 1.299,1.423 2.694,1.63 L -42.826,0 z m 1.421,0.332 c 0,0.579 0,1.339 -0.097,1.726 -0.29,1.077 -1.285,1.423 -2.304,1.423 -0.816,0 -1.618,-0.179 -2.392,-0.456 l -0.125,-1.092 c 0.691,0.18 1.312,0.457 2.21,0.457 0.691,0 1.009,-0.264 1.148,-0.512 0.126,-0.22 0.126,-0.483 0.126,-0.856 l -0.237,-0.027 c -2.485,-0.29 -4.032,-0.885 -4.032,-2.736 0,-1.368 0.966,-2.308 2.347,-2.308 1.049,0 1.671,0.499 1.935,0.705 l -0.013,-0.496 c 0.688,-0.056 0.799,-0.042 1.449,-0.028 0,0.966 -0.015,1.119 -0.015,2.832 l 0,1.368 z m -8.782,-4.117 c -0.042,0.524 -0.054,1.146 -0.097,2.762 l 0,1.617 c -0.014,0.856 -0.028,1.27 -0.207,1.685 -0.152,0.374 -0.441,0.69 -0.802,0.898 -0.372,0.208 -0.8,0.262 -1.145,0.262 -1.216,0 -2.072,-0.608 -2.433,-0.856 l 0.014,0.732 c -0.744,-0.028 -0.87,-0.054 -1.561,-0.18 -0.013,-1.024 0.083,-2.2 0.083,-4.415 0,-1.025 -0.027,-1.772 -0.042,-2.546 0.734,-0.056 0.843,-0.056 1.52,-0.042 -0.014,1.699 -0.042,2.957 -0.028,5.359 0.375,0.291 1.008,0.775 1.839,0.775 0.192,0 0.981,0 1.243,-1.051 0.069,-0.29 0.084,-0.428 0.084,-2.555 0,-0.678 0,-1.355 -0.015,-2.03 l -0.013,-0.456 c 0.731,-0.056 0.815,-0.056 1.477,-0.042 l 0.083,0.083 z"
             id="path31664"
             style="fill:#036a9d;fill-opacity:1;fill-rule:nonzero;stroke:none" /></g><g
           transform="translate(429.985,33.5068)"
           id="g31666"><path
             d="m 0,0 c -3.025,-1.259 -5.189,-4.536 -3.468,-7.635 2.038,-3.046 6.321,-3.311 9.414,-1.741 2.579,1.504 3.805,4.389 2.205,7.053 C 6.335,0.307 2.943,1.034 0,0 m 10.375,3.127 c -2.143,-0.46 -1.534,-3.226 -0.61,-4.732 1.144,-1.67 3.544,-3.641 5.587,-2.693 1.518,0.912 0.494,3.095 -0.318,4.36 -1.047,1.525 -2.72,3.293 -4.659,3.065 M -17.368,-7.824 c -3.446,-1.83 -7.599,-5.889 -5.566,-10.01 2.486,-3.973 8.351,-2.716 11.902,-0.856 3.263,1.895 7.04,5.813 4.923,9.714 -2.444,3.657 -7.759,2.819 -11.259,1.152 m 9.466,17.528 c -2.534,-0.661 -5.417,-2.912 -3.592,-5.544 2.26,-2.698 6.674,-2.741 9.824,-1.719 2.344,0.88 4.165,2.928 2.314,5.13 -2.129,2.225 -5.602,2.758 -8.546,2.133 M 3.251,10.875 C 1.298,10.986 1.19,9.383 2.377,8.016 4.007,6.318 6.597,4.983 8.973,5.142 10.793,5.386 9.426,7.167 8.801,7.829 7.313,9.322 5.358,10.637 3.251,10.875 M -24.812,3.721 c -2.921,-1.394 -7.337,-4.722 -5.568,-8.308 2.299,-3.567 8.107,-1.936 11.316,-0.43 2.756,1.423 7.158,4.738 4.948,8.077 -2.482,3.032 -7.488,2.042 -10.696,0.661 m 6.645,11.189 c -0.996,-0.607 -1.485,-1.356 -0.625,-2.309 2.288,-2.047 6.466,-1.652 9.325,-1.081 1.132,0.259 4.685,1.374 2.613,3.058 -2.255,1.608 -5.476,1.795 -8.177,1.438 -0.72,-0.12 -2.137,-0.498 -3.136,-1.106 m 12.656,0.99 c -0.235,-0.135 -0.416,-0.407 0.408,-1.045 1.979,-1.402 4.559,-2.148 6.962,-2.455 1.325,-0.134 1.499,0.256 0.285,1.119 -1.768,1.201 -3.807,2.112 -5.907,2.527 -0.659,0.112 -1.39,0.06 -1.748,-0.146 m -25.094,-4.408 c -2.101,-0.919 -6.783,-3.415 -5.469,-6.136 1.883,-2.706 7.36,-0.58 9.843,0.487 1.533,0.708 7.019,3.419 4.98,5.859 -2.302,2.155 -6.707,0.853 -9.354,-0.21"
             id="path31668"
             style="fill:#f58320;fill-opacity:1;fill-rule:nonzero;stroke:none" /></g></g></g></g></svg>